<svg width="650" height="120" xmlns="http://www.w3.org/2000/svg">
 <defs>
  <linearGradient y2="0.49975" x2="0.99998" y1="0.49975" x1="-0.00002" id="linear-gradient">
   <stop stop-color="#00557f" offset="0"/>
   <stop stop-color="#0099e5" offset="1"/>
  </linearGradient>
 </defs>
 <g>
  <title>Layer 1</title>
  <path fill="url(#linear-gradient)" fill-rule="evenodd" stroke-width="1px" stroke="#000" d="m105.255,34.857q-3.583,0.721 -5.013,7.161q0,3.584 3.581,2.149q5.01,-6.446 15.039,-5.013q4.3,2.87 -1.432,5.729a16.257,16.257 0 0 0 -5.729,-2.865q-3.583,0.721 -2.149,2.865a19.625,19.625 0 0 0 5.729,5.013q2.149,1.436 3.581,0.716c1.432,0 2.148,-0.951 2.148,-2.865a16.825,16.825 0 0 1 5.73,-3.58a6.513,6.513 0 0 0 3.58,-3.581q0.714,-4.3 -5.729,-3.581a23.892,23.892 0 0 0 -9.31,-2.864a14.579,14.579 0 0 1 -10.026,0.716l0,0zm-5.729,16.471q-6.445,0 -7.161,5.729q0,2.871 2.148,2.149q6.445,-2.862 18.62,-2.865l0,12.891a23.657,23.657 0 0 1 -1.432,7.161q-3.583,6.446 -10.743,3.581a40.551,40.551 0 0 0 -5.013,-2.148q-0.721,1.434 3.581,5.729q9.307,5.731 15.755,0.716q5.01,-5.01 5.013,-13.607l0,-14.323q6.446,-0.712 6.446,2.149q-2.15,5.731 -0.717,6.445q3.576,0.721 7.162,-7.878a5.96,5.96 0 0 0 -1.432,-5.729q-1.435,-1.427 -4.3,0a136.193,136.193 0 0 1 -27.93,0l0,0l0.003,0zm36.523,-15.755q-5.018,2.148 -5.013,7.161q1.428,2.871 5.013,-0.716a27.987,27.987 0 0 1 10.743,-0.716a13.127,13.127 0 0 1 -0.716,7.162q-5.733,0.721 -7.878,-2.149q-3.584,-0.712 -4.3,2.149a30.939,30.939 0 0 1 0.716,5.729a98.548,98.548 0 0 1 -0.716,20.052a2.807,2.807 0 0 0 2.865,2.148a4.585,4.585 0 0 0 4.3,-2.864l0,-17.188q0,-5.01 6.446,-5.013l9.31,0q4.3,0 3.58,4.3q0,17.187 1.433,17.9a4.58,4.58 0 0 0 3.58,0q2.862,-2.149 2.149,-7.878q-0.721,-9.308 0.716,-12.891a6.641,6.641 0 0 0 0,-4.3a4.823,4.823 0 0 0 -4.3,-2.149q-2.87,2.148 -11.458,1.432a26.717,26.717 0 0 0 0.716,-6.445a61.183,61.183 0 0 1 14.323,2.149q5.724,2.148 7.877,-1.433q2.149,-4.3 2.149,-5.729q-3.584,0 -25.781,-0.716a84.613,84.613 0 0 1 -15.756,0l0,0l0.002,0.005zm10.743,20.768l0,9.31q0,5.731 -6.446,12.175q-5.017,5.018 -12.89,4.3c-2.389,0 -3.581,0.482 -3.581,1.433q2.862,4.3 10.742,3.58q10.02,-1.426 15.755,-11.458q3.576,-6.446 2.865,-18.62a4.15,4.15 0 0 0 -1.432,-2.864q-3.584,-1.427 -5.013,2.148l0,0l0,-0.004zm7.877,24.349a77.914,77.914 0 0 0 19.336,7.878c1.432,0 1.667,-0.716 0.716,-2.149a59.565,59.565 0 0 0 -11.458,-8.593a28.233,28.233 0 0 0 -6.445,-3.581q-6.446,2.148 -2.149,6.445l0,0zm48.7,-22.2q7.872,-0.714 15.755,-1.433q5.724,-0.713 4.3,-2.864q-0.722,-2.862 -13.607,-2.149a44.6,44.6 0 0 1 -7.161,0.716q-1.436,0.723 -1.432,-2.148a47.871,47.871 0 0 1 0.716,-7.878a65.6,65.6 0 0 0 22.2,-3.58q2.15,-2.862 -1.432,-6.446a4.754,4.754 0 0 0 -4.3,-0.716q-5.731,5.733 -17.187,5.729q-3.583,-2.861 -5.729,-2.864q-4.3,0.721 -4.3,5.013q1.427,3.583 2.148,12.89l0,6.446a122.865,122.865 0 0 1 -2.148,12.89q-0.722,6.445 7.161,6.446a72.724,72.724 0 0 0 27.93,-10.026q1.427,-2.862 -1.432,-2.865a125.625,125.625 0 0 1 -21.485,3.581q-1.435,0 -2.148,-2.149l0,-5.013q0,-2.862 2.148,-3.58l0,0l0.003,0zm42.969,-15.756q6.445,0.723 8.594,3.581q2.148,3.584 1.432,9.31a15.209,15.209 0 0 1 -6.445,10.742a50.355,50.355 0 0 1 -12.175,2.865l0,-25.065q0,-2.149 8.594,-1.433l0,0zm-19.338,-4.296a17.9,17.9 0 0 0 -2.148,4.3a2.288,2.288 0 0 0 1.432,2.149c1.432,0 2.148,0.481 2.148,1.432l0,36.524a20.85,20.85 0 0 0 0.716,5.013c0.952,1.913 2.624,2.624 5.013,2.148a3.985,3.985 0 0 0 3.581,-4.3l0,-12.89q5.01,2.87 14.323,0q5.724,-2.149 10.742,-9.31a42.084,42.084 0 0 0 2.865,-15.756q0.712,-7.158 -2.865,-10.742q-4.3,-3.574 -10.026,0a56.157,56.157 0 0 1 -17.9,0a6.408,6.408 0 0 0 -2.865,-0.716a6.863,6.863 0 0 0 -5.016,2.148l0,0zm116.016,7.877q5.723,-1.426 2.148,-5.013l-22.2,0l0,-5.013q0.713,-5.01 -6.446,-5.013q-3.583,0 -3.581,5.729l0,4.3q-12.177,0 -18.619,-2.148q-5.019,-0.714 -7.878,7.161a2.529,2.529 0 0 0 2.865,2.865q10.02,-3.576 23.632,-2.865q-16.473,18.623 -35.091,24.349q-3.584,0.722 -2.148,3.581q2.148,3.583 7.161,2.864q12.17,-2.148 30.078,-22.2a86.372,86.372 0 0 1 0,15.755q-2.87,1.436 -8.593,-0.716q-2.871,0 -5.013,5.729c0,1.432 0.951,1.914 2.864,1.432a87.262,87.262 0 0 1 10.742,-0.716q-0.721,12.177 3.581,12.175q7.16,0.721 6.446,-6.446l0,-5.729l11.458,0q3.574,-1.427 0,-4.3q-9.315,-0.712 -11.458,-1.432q-0.723,-2.862 0,-18.62q16.465,19.336 20.768,22.917q7.158,5.731 17.187,-5.729q-21.484,-7.872 -35.807,-22.917l17.9,0l0.004,0zm78.776,-15.039q-4.3,0.721 -2.865,5.729q0.714,9.317 0.716,20.768a20.008,20.008 0 0 1 -9.31,-0.716q-3.584,0 -4.3,4.3c0,1.914 0.476,2.865 1.433,2.865q2.862,-0.714 7.161,-1.433q11.456,-0.712 23.633,-0.716q3.575,0 2.148,5.013a77.141,77.141 0 0 0 -23.632,0.716a16.6,16.6 0 0 0 -5.73,-1.432q-2.148,0.722 -4.3,4.3q-0.723,3.584 2.864,3.581q5.01,-2.148 30.794,-3.581a17.9,17.9 0 0 1 -1.432,7.878l-27.93,0a23.643,23.643 0 0 0 -5.729,-0.716q-3.584,0.721 -4.3,5.013q0,3.584 4.3,2.148q7.16,-2.148 27.93,-2.148a72.389,72.389 0 0 1 10.742,2.148q2.862,0.721 2.865,-2.148q0,-12.891 2.148,-20.769q0,-5.01 -5.013,-5.729q-2.148,-0.712 -4.3,2.149a87.2,87.2 0 0 0 -10.742,-0.717q0.714,-13.6 1.432,-18.619q-1.434,-6.445 -8.593,-7.878l0,0l0.01,-0.006zm-37.24,3.581a71.084,71.084 0 0 1 0.716,10.026l-6.445,0a6.4,6.4 0 0 0 -2.865,-0.716q-2.87,0.721 -2.864,5.013a4.294,4.294 0 0 0 2.864,2.864a29.364,29.364 0 0 1 9.31,-1.432q-0.721,6.446 -10.742,13.607a29.648,29.648 0 0 0 -5.729,4.3a2.28,2.28 0 0 0 0.716,3.58q4.3,1.435 10.026,-1.432q4.3,-5.724 6.445,-7.161q0,15.761 -0.716,21.484q0.714,3.584 5.013,3.581q3.576,0 4.3,-5.013q-0.721,-15.753 -0.716,-22.2q4.3,2.148 7.878,3.581q1.426,0 2.148,-2.149a62.37,62.37 0 0 1 -10.026,-9.309l0,-2.865l6.445,0a2.888,2.888 0 0 0 2.865,-1.432q0.712,-2.862 -1.432,-3.581q-6.446,-0.714 -7.878,-1.432a18.532,18.532 0 0 1 0.716,-5.729a10.952,10.952 0 0 0 -7.161,-5.73q-3.583,0.721 -2.865,2.149l0,0l-0.003,-0.004zm21.484,11.458a6.192,6.192 0 0 0 2.149,4.3q5.01,3.584 8.594,4.3q2.148,0 1.432,-1.432a42.447,42.447 0 0 1 -5.013,-10.743q-2.871,-2.861 -5.013,-1.432a6.875,6.875 0 0 0 -2.149,5.013l0,0l0,-0.006zm25.782,6.445c-0.481,0.957 0,1.433 1.432,1.433a50.039,50.039 0 0 0 7.161,-3.581q7.872,-5.01 4.3,-10.026q-5.018,-4.3 -5.729,-1.432a41.532,41.532 0 0 1 -7.161,13.606l0,0l-0.003,0zm90.95,-9.309q7.159,0 7.162,3.58l0,7.878a1.9,1.9 0 0 0 2.148,2.148q4.3,0 3.581,-2.864a87.377,87.377 0 0 1 0.716,-12.175q-0.721,-4.3 -5.729,-3.58q-5.733,2.148 -20.052,0.716q-2.871,0.721 -4.3,-3.581a4.649,4.649 0 0 0 -2.149,-2.865a4.874,4.874 0 0 0 -3.58,-1.432a4.6,4.6 0 0 0 -3.581,3.581q-0.722,4.3 -5.013,4.3q-11.464,0.721 -16.471,-0.716q-3.584,-0.714 -5.013,3.58q0,5.733 -0.717,13.607c0.476,1.913 1.192,2.865 2.149,2.865q2.862,0 3.581,-2.149a44.621,44.621 0 0 0 0.716,-8.594q0,-4.3 5.013,-4.3a86.911,86.911 0 0 1 15.755,0a231.288,231.288 0 0 1 25.781,0l0,0l0.003,0.001zm-26.5,2.148l-2.149,3.581a27.831,27.831 0 0 1 -10.026,-1.433a9.059,9.059 0 0 0 -3.58,2.149a27.021,27.021 0 0 0 -1.433,3.581q0,2.869 3.581,0.716a34.169,34.169 0 0 1 9.31,-1.433q-0.721,1.436 -1.432,2.865t10.026,3.581a65.209,65.209 0 0 1 -17.188,2.148a3.982,3.982 0 0 0 4.3,3.581a42.683,42.683 0 0 0 17.9,-4.3q9.306,2.869 15.755,4.3q3.575,0.721 4.3,-0.716a4.757,4.757 0 0 0 -2.149,-2.149q-9.315,-2.862 -15.039,-4.3q2.149,-2.86 4.3,-5.729l11.456,0c1.433,0 2.149,-0.475 2.149,-1.432s-0.957,-1.667 -2.865,-2.148l-22.916,0q2.862,-2.862 -0.716,-3.581a3.252,3.252 0 0 0 -3.581,0.716l0,0l-0.003,0.003zm-27.214,22.917a7.756,7.756 0 0 0 -6.445,1.432a16.579,16.579 0 0 0 -2.865,4.3q-0.721,3.583 4.3,1.432q6.446,-3.574 33.659,-4.3l0,15.755a4.81,4.81 0 0 0 4.3,2.149a6.955,6.955 0 0 0 4.3,-2.865a137.173,137.173 0 0 1 -0.716,-15.039a83.145,83.145 0 0 1 21.484,2.865q5.724,3.583 10.026,1.432q3.576,-2.148 6.445,-7.878q-5.731,0 -28.645,-0.716l-9.31,0q0,-2.148 -2.865,-3.58a3.051,3.051 0 0 0 -2.864,0a4.821,4.821 0 0 0 -2.149,4.3a199.507,199.507 0 0 1 -28.646,0.717l0,0l-0.009,-0.004zm35.091,-12.175q-5.732,-1.427 -7.877,-2.148a4.7,4.7 0 0 1 2.148,-2.149q2.862,-0.713 9.31,0a28.493,28.493 0 0 1 -3.581,4.3l0,0l0,-0.003zm-35.807,30.078q4.3,1.435 11.458,-0.716q8.6,-2.862 12.891,-6.445q1.427,-2.148 -0.716,-4.3a3.255,3.255 0 0 0 -3.581,-0.716a67.913,67.913 0 0 1 -20.052,12.174l0,0l0,0.003zm42.253,-10.026q-1.436,2.149 0,3.581a77.15,77.15 0 0 0 22.2,7.878q1.427,-1.428 -7.877,-6.446q-5.019,-2.862 -9.31,-5.729q-2.871,-2.148 -5.013,0.716l0,0zm88.8,-10.742q10.742,-0.714 15.755,0.716q1.427,0.722 4.3,-1.432a3.253,3.253 0 0 0 0.716,-3.581a14.531,14.531 0 0 1 0,-6.445a2.943,2.943 0 0 0 -0.716,-2.149q-3.584,-2.148 -5.013,-1.432a6.37,6.37 0 0 0 -2.865,0.716a51.49,51.49 0 0 1 -12.174,0a6.109,6.109 0 0 0 -5.729,0a2.888,2.888 0 0 0 -1.433,2.865a120.545,120.545 0 0 1 -0.716,29.362q0,4.3 4.3,2.864a11.588,11.588 0 0 1 5.013,-1.432q12.891,-0.713 17.9,1.432q2.148,1.436 5.013,-1.432a4,4 0 0 0 1.432,-2.148q-0.721,-5.724 0.716,-9.31q0.714,-1.426 -2.864,-4.3c-1.433,-0.951 -2.63,-1.192 -3.581,-0.716a6.33,6.33 0 0 1 -2.865,0.716a102.534,102.534 0 0 1 -17.187,0q-0.721,-2.862 0,-4.3l0,0l-0.002,0.006zm17.187,8.594a8.622,8.622 0 0 1 1.433,2.148q0.712,5.019 -4.3,4.3a70.555,70.555 0 0 1 -14.323,0a26.425,26.425 0 0 1 -0.716,-6.445a112.36,112.36 0 0 1 17.9,0l0,0l0.006,-0.003zm-3.578,-17.188q1.426,3.584 -2.149,4.3a45.671,45.671 0 0 1 -11.458,0a6.578,6.578 0 0 1 0,-4.3q9.306,-1.427 13.607,0l0,0zm-47.266,-21.484a40.083,40.083 0 0 1 -11.455,14.327q-4.3,3.584 -4.3,6.445q0.713,2.148 6.445,-0.716a116.884,116.884 0 0 0 12.175,-9.31q8.594,0 7.161,2.149a11.659,11.659 0 0 1 -5.013,5.729l-2.147,-1.437a3.252,3.252 0 0 0 -3.581,0.717q-1.436,1.434 -0.716,5.013q1.427,4.3 0.716,11.458q0,7.167 -3.581,11.458q-2.148,2.871 5.013,5.729q1.427,0.723 6.445,-2.864a87.374,87.374 0 0 0 7.162,-6.445a50.1,50.1 0 0 0 3.581,-7.162c0,-1.432 -0.482,-2.148 -1.433,-2.148a24.91,24.91 0 0 1 -5.013,5.013q-5.731,4.3 -5.729,0.716l0,-5.013a100.6,100.6 0 0 1 0.716,-13.607a32.919,32.919 0 0 0 11.459,-8.594q0.712,-3.575 -2.865,-5.013a30.169,30.169 0 0 1 -9.31,0q5.01,-3.575 0.716,-8.594q-3.583,-3.575 -6.445,2.149l0,0l-0.001,0zm34.375,-1.432a29.963,29.963 0 0 0 -0.716,7.161a51.806,51.806 0 0 1 -8.594,0.716a4.742,4.742 0 0 0 -5.013,0q-2.148,1.435 -2.148,7.162a33.947,33.947 0 0 0 1.432,9.31q2.862,2.148 3.581,-0.717a61.652,61.652 0 0 1 0.716,-8.593q1.427,-2.862 10.026,-3.581l17.187,0q9.308,0.722 8.594,8.594a8.048,8.048 0 0 0 0.716,5.729q2.148,2.148 3.581,-0.716q0.712,-5.01 1.432,-10.026q1.427,-2.862 0.716,-4.3q-2.87,-5.01 -5.729,-4.3a8.812,8.812 0 0 1 -5.013,1.432a58.936,58.936 0 0 1 -10.742,-0.716q0.714,-8.593 -5.013,-9.31q-3.583,0 -5.013,2.149l0,0l0,0.006zm-565.3,-23.9l0.488,4.212a13.427,13.427 0 0 0 1.984,5.615a28.2,28.2 0 0 0 3.479,5.066a19.075,19.075 0 0 0 4.791,3.54a12.238,12.238 0 0 0 5.249,1.831q2.074,0.061 1.953,-1.5a11.248,11.248 0 0 0 -0.305,-2.136q-0.183,-0.579 -2.747,-2.044a26.161,26.161 0 0 1 -5.371,-4.273a13.083,13.083 0 0 1 -3.51,-5.157a28.888,28.888 0 0 1 -1.007,-5.219l11.9,-0.793l0.244,2.319a16.548,16.548 0 0 0 1.068,4.944a22.834,22.834 0 0 0 2.045,4.059a16.534,16.534 0 0 0 4.364,4.059a31.2,31.2 0 0 0 5.035,3.051q3.539,1.71 4.578,0.122a2.888,2.888 0 0 0 0.61,-2.624q-0.428,-1.038 -3.479,-2.655a30.384,30.384 0 0 1 -5.218,-3.418a10.29,10.29 0 0 1 -3.143,-4.486a8.21,8.21 0 0 1 -0.671,-3.357q0.06,-1.526 0.183,-2.625a31.817,31.817 0 0 0 8,-1.007q2.99,-0.883 3.54,-1.983a2.313,2.313 0 0 0 -0.366,-3.022q-1.282,-1.128 -6.073,-0.183a98.25,98.25 0 0 1 -14.1,1.313q-9.308,0.366 -13.885,0.7a33.755,33.755 0 0 0 -8.087,1.5a14.579,14.579 0 0 0 -5.463,2.99q-3.968,3.725 -3.815,7.843a15.761,15.761 0 0 0 1.92,7.267q1.77,3.144 7.874,6.561q4.088,2.38 5.249,0.641a3.655,3.655 0 0 0 0.794,-2.991q-0.366,-1.25 -4.273,-3.906t-4.822,-4.3a6.288,6.288 0 0 1 -0.916,-4.089a4.574,4.574 0 0 1 3.388,-4.517a20.079,20.079 0 0 1 3.754,-0.7q2.44,-0.275 4.761,-0.641l0,0l0,-0.007zm6.348,42.664l-4.944,0.122l-7.812,0.122a17.785,17.785 0 0 0 -5.493,1.495a9.119,9.119 0 0 0 -4.272,4.486a13.072,13.072 0 0 0 -1.376,6.17a17.425,17.425 0 0 0 1.251,6.439q1.22,3.021 7.935,4a32.617,32.617 0 0 0 6.2,0.061q4.18,-0.243 9.186,-0.336a44.3,44.3 0 0 1 8.911,0.641q3.905,0.732 5.554,2.35a14.7,14.7 0 0 1 2.838,4.028a28.794,28.794 0 0 1 2.065,6.557a71.459,71.459 0 0 1 1.068,12.329l0.061,6.53a55.642,55.642 0 0 1 -0.244,6.1a6.245,6.245 0 0 0 0.061,2.746a2.547,2.547 0 0 0 2.869,2.015a2.807,2.807 0 0 0 2.167,-0.916a5.525,5.525 0 0 0 0.946,-2.777a55.3,55.3 0 0 0 0.305,-5.585q0,-3.54 -0.092,-5.554t-0.641,-7.843q-0.549,-5.827 -1.038,-8.331a39.924,39.924 0 0 0 -2.289,-6.9a18.442,18.442 0 0 0 -4.944,-7.111a18.933,18.933 0 0 0 -8.118,-3.906q-4.975,-1.19 -15.228,-0.458q-5.982,0.489 -7.843,0.427a6.317,6.317 0 0 1 -2.838,-0.61a4.406,4.406 0 0 1 -1.678,-1.922a6.9,6.9 0 0 1 -0.763,-2.9a5.511,5.511 0 0 1 1.379,-4.174q1.556,-1.8 9.125,-1.983l20.02,0q5.37,0.183 8.453,0.122a9.18,9.18 0 0 0 5.524,-1.923a8.942,8.942 0 0 0 3.174,-5.707a26.884,26.884 0 0 0 -0.03,-5.92a10.344,10.344 0 0 0 -2.564,-6.5q-2.229,-2.349 -8.3,-3.235a115.367,115.367 0 0 0 -16.449,-0.824q-6.532,0.061 -14.709,0.824t-9.369,2.258a4.4,4.4 0 0 0 -1.19,2.411a2.338,2.338 0 0 0 0.824,1.953a2.926,2.926 0 0 0 1.892,0.824a20.018,20.018 0 0 0 4.547,-1.007q3.539,-1.036 15.93,-0.915l0.366,2.563a25.727,25.727 0 0 1 0.305,5.463a38.914,38.914 0 0 1 -0.732,4.3l0,0l0,0.001zm15.076,-12.3q6.469,0.336 8.179,1.923t1.221,4.974q-0.489,3.387 -1.678,4.608t-17.3,0.611l0.427,-3.052a31.226,31.226 0 0 0 -0.031,-4.151q-0.153,-3.172 -0.214,-5.065a92.359,92.359 0 0 1 9.393,0.155l0.003,-0.003z" class="cls-1" id="中文loggi左边"/>
 </g>
</svg>