<svg xmlns="http://www.w3.org/2000/svg" xmlns:xlink="http://www.w3.org/1999/xlink" width="650" height="354" viewBox="0 0 650 354">
  <defs>
    <style>
      .cls-1 {
        stroke: #000;
        stroke-width: 1px;
        fill-rule: evenodd;
        fill: url(#linear-gradient);
      }
    </style>
    <linearGradient id="linear-gradient" x1="55.375" y1="156.125" x2="594.844" y2="156.125" gradientUnits="userSpaceOnUse">
      <stop offset="0" stop-color="#00557f"/>
      <stop offset="1" stop-color="#0099e5"/>
    </linearGradient>
  </defs>
  <path id="中文logo上边" class="cls-1" d="M68.255,203.857q-3.583.721-5.013,7.161,0,3.584,3.581,2.149,5.01-6.446,15.039-5.013,4.3,2.87-1.432,5.729a16.246,16.246,0,0,0-5.729-2.865q-3.584.721-2.148,2.865a19.63,19.63,0,0,0,5.729,5.013q2.148,1.436,3.581.716c1.432,0,2.148-.951,2.148-2.865a16.814,16.814,0,0,1,5.729-3.58,6.515,6.515,0,0,0,3.581-3.581q0.713-4.3-5.729-3.581a23.892,23.892,0,0,0-9.31-2.864,14.58,14.58,0,0,1-10.026.716h0Zm-5.729,16.471q-6.445,0-7.161,5.729,0,2.871,2.148,2.149,6.445-2.862,18.62-2.865v12.891a23.655,23.655,0,0,1-1.432,7.161q-3.584,6.446-10.742,3.581a40.622,40.622,0,0,0-5.013-2.148q-0.722,1.434,3.581,5.729,9.307,5.731,15.755.716,5.01-5.01,5.013-13.607V225.341q6.445-.712,6.445,2.149-2.148,5.731-.716,6.445,3.575,0.721,7.162-7.878a5.958,5.958,0,0,0-1.432-5.729q-1.435-1.427-4.3,0a136.19,136.19,0,0,1-27.93,0h0ZM99.05,204.573q-5.019,2.148-5.013,7.161,1.427,2.871,5.013-.716a27.984,27.984,0,0,1,10.743-.716,13.127,13.127,0,0,1-.716,7.162q-5.733.721-7.878-2.149-3.584-.712-4.3,2.149a30.977,30.977,0,0,1,.716,5.729,98.572,98.572,0,0,1-.716,20.052,2.807,2.807,0,0,0,2.865,2.148,4.585,4.585,0,0,0,4.3-2.864V225.341q0-5.01,6.446-5.013h9.31q4.3,0,3.58,4.3,0,17.187,1.433,17.9a4.58,4.58,0,0,0,3.58,0q2.862-2.149,2.149-7.878-0.721-9.308.716-12.891a6.641,6.641,0,0,0,0-4.3,4.823,4.823,0,0,0-4.3-2.149q-2.87,2.148-11.458,1.432a26.717,26.717,0,0,0,.716-6.445,61.183,61.183,0,0,1,14.323,2.149q5.724,2.148,7.877-1.433,2.149-4.3,2.149-5.729-3.584,0-25.781-.716a84.608,84.608,0,0,1-15.756,0h0Zm10.743,20.768v9.31q0,5.731-6.446,12.175-5.017,5.018-12.89,4.3c-2.389,0-3.581.482-3.581,1.433q2.862,4.3,10.742,3.58,10.02-1.426,15.755-11.458,3.576-6.446,2.865-18.62a4.15,4.15,0,0,0-1.432-2.864q-3.584-1.427-5.013,2.148h0Zm7.877,24.349a77.914,77.914,0,0,0,19.336,7.878c1.432,0,1.667-.716.716-2.149a59.565,59.565,0,0,0-11.458-8.593,28.233,28.233,0,0,0-6.445-3.581q-6.445,2.148-2.149,6.445h0Zm48.7-22.2q7.872-.714,15.755-1.433,5.724-.713,4.3-2.864-0.722-2.862-13.607-2.149a44.6,44.6,0,0,1-7.161.716q-1.436.723-1.432-2.148a47.871,47.871,0,0,1,.716-7.878,65.6,65.6,0,0,0,22.2-3.58q2.15-2.862-1.432-6.446a4.754,4.754,0,0,0-4.3-.716q-5.731,5.733-17.187,5.729-3.583-2.861-5.729-2.864-4.3.721-4.3,5.013,1.427,3.583,2.148,12.89v6.446a122.865,122.865,0,0,1-2.148,12.89q-0.722,6.445,7.161,6.446a72.724,72.724,0,0,0,27.93-10.026q1.427-2.862-1.432-2.865a125.625,125.625,0,0,1-21.485,3.581q-1.435,0-2.148-2.149V231.07q0-2.862,2.148-3.58h0Zm42.969-15.756q6.445,0.723,8.594,3.581,2.148,3.584,1.432,9.31a15.209,15.209,0,0,1-6.445,10.742,50.355,50.355,0,0,1-12.175,2.865V213.167q0-2.149,8.594-1.433h0ZM190,207.438a17.9,17.9,0,0,0-2.148,4.3,2.288,2.288,0,0,0,1.432,2.149c1.432,0,2.148.481,2.148,1.432v36.524a20.85,20.85,0,0,0,.716,5.013c0.952,1.913,2.624,2.624,5.013,2.148a3.985,3.985,0,0,0,3.581-4.3v-12.89q5.01,2.87,14.323,0,5.724-2.149,10.742-9.31a42.084,42.084,0,0,0,2.865-15.756q0.713-7.158-2.865-10.742-4.3-3.574-10.026,0a56.157,56.157,0,0,1-17.9,0,6.408,6.408,0,0,0-2.865-.716A6.863,6.863,0,0,0,190,207.438h0Zm116.016,7.877q5.723-1.426,2.148-5.013h-22.2v-5.013q0.713-5.01-6.446-5.013-3.583,0-3.581,5.729v4.3q-12.177,0-18.619-2.148-5.019-.714-7.878,7.161a2.529,2.529,0,0,0,2.865,2.865q10.02-3.576,23.632-2.865-16.473,18.623-35.091,24.349-3.584.722-2.148,3.581,2.148,3.583,7.161,2.864,12.17-2.148,30.078-22.2a86.372,86.372,0,0,1,0,15.755q-2.87,1.436-8.593-.716-2.871,0-5.013,5.729c0,1.432.951,1.914,2.864,1.432a87.262,87.262,0,0,1,10.742-.716q-0.721,12.177,3.581,12.175,7.16,0.721,6.446-6.446v-5.729h11.458q3.574-1.427,0-4.3-9.315-.712-11.458-1.432-0.723-2.862,0-18.62,16.465,19.336,20.768,22.917,7.158,5.731,17.187-5.729-21.484-7.872-35.807-22.917h17.9Zm78.776-15.039q-4.3.721-2.865,5.729,0.714,9.317.716,20.768a20.008,20.008,0,0,1-9.31-.716q-3.584,0-4.3,4.3c0,1.914.476,2.865,1.433,2.865q2.862-.714,7.161-1.433,11.456-.712,23.633-0.716,3.575,0,2.148,5.013a77.141,77.141,0,0,0-23.632.716,16.6,16.6,0,0,0-5.73-1.432q-2.148.722-4.3,4.3-0.723,3.584,2.864,3.581,5.01-2.148,30.794-3.581a17.9,17.9,0,0,1-1.432,7.878h-27.93a23.643,23.643,0,0,0-5.729-.716q-3.584.721-4.3,5.013,0,3.584,4.3,2.148,7.16-2.148,27.93-2.148a72.389,72.389,0,0,1,10.742,2.148q2.862,0.721,2.865-2.148,0-12.891,2.148-20.769,0-5.01-5.013-5.729-2.148-.712-4.3,2.149a87.2,87.2,0,0,0-10.742-.717q0.714-13.6,1.432-18.619-1.434-6.445-8.593-7.878h0Zm-37.24,3.581a71.084,71.084,0,0,1,.716,10.026h-6.445a6.4,6.4,0,0,0-2.865-.716q-2.87.721-2.864,5.013a4.294,4.294,0,0,0,2.864,2.864,29.364,29.364,0,0,1,9.31-1.432q-0.721,6.446-10.742,13.607a29.648,29.648,0,0,0-5.729,4.3,2.28,2.28,0,0,0,.716,3.58q4.3,1.435,10.026-1.432,4.3-5.724,6.445-7.161,0,15.761-.716,21.484,0.714,3.583,5.013,3.581,3.576,0,4.3-5.013-0.721-15.753-.716-22.2,4.3,2.148,7.878,3.581,1.426,0,2.148-2.149a62.37,62.37,0,0,1-10.026-9.309v-2.865h6.445a2.888,2.888,0,0,0,2.865-1.432q0.712-2.862-1.432-3.581-6.446-.714-7.878-1.432a18.532,18.532,0,0,1,.716-5.729,10.952,10.952,0,0,0-7.161-5.73q-3.583.721-2.865,2.149h0Zm21.484,11.458a6.192,6.192,0,0,0,2.149,4.3q5.01,3.584,8.594,4.3,2.148,0,1.432-1.432a42.447,42.447,0,0,1-5.013-10.743q-2.871-2.861-5.013-1.432a6.875,6.875,0,0,0-2.149,5.013h0Zm25.782,6.445c-0.481.957,0,1.433,1.432,1.433a50.039,50.039,0,0,0,7.161-3.581q7.872-5.01,4.3-10.026-5.018-4.3-5.729-1.432a41.532,41.532,0,0,1-7.161,13.606h0Zm90.95-9.309q7.16,0,7.162,3.58v7.878a1.9,1.9,0,0,0,2.148,2.148q4.3,0,3.581-2.864a87.377,87.377,0,0,1,.716-12.175q-0.721-4.3-5.729-3.58-5.733,2.148-20.052.716-2.871.721-4.3-3.581a4.649,4.649,0,0,0-2.149-2.865,4.874,4.874,0,0,0-3.58-1.432,4.6,4.6,0,0,0-3.581,3.581q-0.722,4.3-5.013,4.3-11.464.721-16.471-.716-3.584-.714-5.013,3.58,0,5.733-.717,13.607c0.476,1.913,1.192,2.865,2.149,2.865q2.862,0,3.581-2.149a44.621,44.621,0,0,0,.716-8.594q0-4.3,5.013-4.3a86.911,86.911,0,0,1,15.755,0,231.288,231.288,0,0,1,25.781,0h0Zm-26.5,2.148-2.149,3.581a27.831,27.831,0,0,1-10.026-1.433,9.059,9.059,0,0,0-3.58,2.149,27.021,27.021,0,0,0-1.433,3.581q0,2.869,3.581.716a34.169,34.169,0,0,1,9.31-1.433q-0.721,1.436-1.432,2.865t10.026,3.581a65.209,65.209,0,0,1-17.188,2.148,3.982,3.982,0,0,0,4.3,3.581,42.683,42.683,0,0,0,17.9-4.3q9.306,2.869,15.755,4.3,3.574,0.721,4.3-.716a4.757,4.757,0,0,0-2.149-2.149q-9.315-2.862-15.039-4.3,2.149-2.86,4.3-5.729H487.2c1.433,0,2.149-.475,2.149-1.432s-0.957-1.667-2.865-2.148H463.568q2.862-2.862-.716-3.581a3.252,3.252,0,0,0-3.581.716h0Zm-27.214,22.917a7.756,7.756,0,0,0-6.445,1.432,16.579,16.579,0,0,0-2.865,4.3q-0.721,3.583,4.3,1.432,6.446-3.574,33.659-4.3v15.755a4.81,4.81,0,0,0,4.3,2.149,6.955,6.955,0,0,0,4.3-2.865,137.173,137.173,0,0,1-.716-15.039,83.145,83.145,0,0,1,21.484,2.865q5.724,3.583,10.026,1.432,3.576-2.148,6.445-7.878-5.732,0-28.645-.716h-9.31q0-2.148-2.865-3.58a3.051,3.051,0,0,0-2.864,0,4.821,4.821,0,0,0-2.149,4.3,199.507,199.507,0,0,1-28.646.717h0Zm35.091-12.175q-5.732-1.427-7.877-2.148a4.7,4.7,0,0,1,2.148-2.149q2.862-.713,9.31,0a28.493,28.493,0,0,1-3.581,4.3h0Zm-35.807,30.078q4.3,1.435,11.458-.716,8.6-2.862,12.891-6.445,1.427-2.148-.716-4.3a3.255,3.255,0,0,0-3.581-.716,67.913,67.913,0,0,1-20.052,12.174h0Zm42.253-10.026q-1.435,2.149,0,3.581a77.15,77.15,0,0,0,22.2,7.878q1.427-1.428-7.877-6.446-5.019-2.862-9.31-5.729-2.871-2.148-5.013.716h0Zm88.8-10.742q10.742-.714,15.755.716,1.427,0.722,4.3-1.432a3.253,3.253,0,0,0,.716-3.581,14.531,14.531,0,0,1,0-6.445,2.943,2.943,0,0,0-.716-2.149q-3.584-2.148-5.013-1.432a6.37,6.37,0,0,0-2.865.716,51.49,51.49,0,0,1-12.174,0,6.109,6.109,0,0,0-5.729,0,2.888,2.888,0,0,0-1.433,2.865,120.545,120.545,0,0,1-.716,29.362q0,4.3,4.3,2.864a11.588,11.588,0,0,1,5.013-1.432q12.891-.713,17.9,1.432,2.148,1.435,5.013-1.432a4,4,0,0,0,1.432-2.148q-0.721-5.724.716-9.31,0.714-1.426-2.864-4.3c-1.433-.951-2.63-1.192-3.581-0.716a6.33,6.33,0,0,1-2.865.716,102.534,102.534,0,0,1-17.187,0q-0.721-2.862,0-4.3h0Zm17.187,8.594a8.622,8.622,0,0,1,1.433,2.148q0.712,5.019-4.3,4.3a70.555,70.555,0,0,1-14.323,0,26.425,26.425,0,0,1-.716-6.445,112.36,112.36,0,0,1,17.9,0h0ZM576,226.057q1.426,3.584-2.149,4.3a45.671,45.671,0,0,1-11.458,0,6.578,6.578,0,0,1,0-4.3q9.306-1.427,13.607,0h0Zm-47.266-21.484A40.083,40.083,0,0,1,517.279,218.9q-4.3,3.584-4.3,6.445,0.713,2.148,6.445-.716a116.884,116.884,0,0,0,12.175-9.31q8.594,0,7.161,2.149a11.659,11.659,0,0,1-5.013,5.729L531.6,221.76a3.252,3.252,0,0,0-3.581.717q-1.436,1.434-.716,5.013,1.427,4.3.716,11.458,0,7.167-3.581,11.458-2.148,2.871,5.013,5.729,1.427,0.723,6.445-2.864a87.374,87.374,0,0,0,7.162-6.445,50.1,50.1,0,0,0,3.581-7.162c0-1.432-.482-2.148-1.433-2.148a24.91,24.91,0,0,1-5.013,5.013q-5.731,4.3-5.729.716v-5.013a100.6,100.6,0,0,1,.716-13.607,32.919,32.919,0,0,0,11.459-8.594q0.712-3.575-2.865-5.013a30.169,30.169,0,0,1-9.31,0q5.01-3.575.716-8.594-3.583-3.575-6.445,2.149h0Zm34.375-1.432a29.963,29.963,0,0,0-.716,7.161,51.806,51.806,0,0,1-8.594.716,4.742,4.742,0,0,0-5.013,0q-2.148,1.435-2.148,7.162a33.947,33.947,0,0,0,1.432,9.31q2.862,2.148,3.581-.717a61.652,61.652,0,0,1,.716-8.593q1.427-2.862,10.026-3.581h17.187q9.308,0.722,8.594,8.594a8.048,8.048,0,0,0,.716,5.729q2.148,2.148,3.581-.716,0.712-5.01,1.432-10.026,1.427-2.862.716-4.3-2.87-5.01-5.729-4.3a8.812,8.812,0,0,1-5.013,1.432,58.936,58.936,0,0,1-10.742-.716q0.714-8.593-5.013-9.31-3.583,0-5.013,2.149h0Zm-247.3-141.9,0.488,4.211a13.421,13.421,0,0,0,1.984,5.615,28.166,28.166,0,0,0,3.479,5.066,19.058,19.058,0,0,0,4.791,3.54,12.237,12.237,0,0,0,5.249,1.831q2.074,0.061,1.953-1.5a11.249,11.249,0,0,0-.3-2.136q-0.183-.579-2.746-2.045a26.133,26.133,0,0,1-5.371-4.272,13.085,13.085,0,0,1-3.51-5.157,28.9,28.9,0,0,1-1.007-5.218l11.9-.793,0.244,2.319a16.553,16.553,0,0,0,1.068,4.944,22.762,22.762,0,0,0,2.045,4.059,16.518,16.518,0,0,0,4.364,4.059,31.2,31.2,0,0,0,5.035,3.052q3.54,1.709,4.578.122a2.89,2.89,0,0,0,.61-2.625q-0.428-1.037-3.479-2.655a30.389,30.389,0,0,1-5.218-3.418,10.294,10.294,0,0,1-3.144-4.486,8.212,8.212,0,0,1-.671-3.357q0.06-1.525.183-2.624a31.851,31.851,0,0,0,8-1.007q2.989-.884,3.54-1.984a2.313,2.313,0,0,0-.366-3.021q-1.283-1.129-6.073-.183a98.239,98.239,0,0,1-14.1,1.312q-9.308.366-13.885,0.7a33.73,33.73,0,0,0-8.087,1.5,14.574,14.574,0,0,0-5.463,2.991q-3.968,3.724-3.815,7.843A15.75,15.75,0,0,0,300,75.19q1.77,3.144,7.874,6.561,4.088,2.38,5.249.641a3.657,3.657,0,0,0,.793-2.991q-0.366-1.25-4.272-3.906t-4.822-4.3A6.284,6.284,0,0,1,303.9,67.1a4.576,4.576,0,0,1,3.388-4.517,20.053,20.053,0,0,1,3.753-.7q2.44-.275,4.761-0.641h0Zm6.348,42.664-4.944.122-7.813.122a17.784,17.784,0,0,0-5.493,1.5,9.115,9.115,0,0,0-4.272,4.486,13.079,13.079,0,0,0-1.374,6.165,17.434,17.434,0,0,0,1.252,6.439q1.219,3.021,7.934,4a32.618,32.618,0,0,0,6.195.061q4.181-.243,9.186-0.336a44.3,44.3,0,0,1,8.911.641q3.906,0.732,5.554,2.35a14.707,14.707,0,0,1,2.839,4.028,28.855,28.855,0,0,1,2.075,6.562,71.5,71.5,0,0,1,1.068,12.329l0.061,6.53a55.7,55.7,0,0,1-.244,6.1,6.249,6.249,0,0,0,.061,2.746,2.548,2.548,0,0,0,2.869,2.015,2.806,2.806,0,0,0,2.166-.916,5.517,5.517,0,0,0,.946-2.777,55.339,55.339,0,0,0,.305-5.585q0-3.54-.091-5.554t-0.641-7.843q-0.549-5.827-1.038-8.331a39.957,39.957,0,0,0-2.288-6.9,18.448,18.448,0,0,0-4.944-7.111,18.933,18.933,0,0,0-8.118-3.906q-4.976-1.189-15.228-.458-5.982.489-7.843,0.427a6.314,6.314,0,0,1-2.838-.61,4.407,4.407,0,0,1-1.679-1.922,6.9,6.9,0,0,1-.763-2.9,5.51,5.51,0,0,1,1.374-4.181q1.556-1.8,9.124-1.983h20.02q5.37,0.183,8.453.122a9.182,9.182,0,0,0,5.524-1.923,8.946,8.946,0,0,0,3.174-5.707,26.918,26.918,0,0,0-.031-5.92,10.344,10.344,0,0,0-2.563-6.5q-2.229-2.349-8.3-3.235a115.307,115.307,0,0,0-16.449-.824q-6.531.061-14.709,0.824t-9.369,2.258a4.4,4.4,0,0,0-1.191,2.411,2.341,2.341,0,0,0,.824,1.953,2.932,2.932,0,0,0,1.893.824,20.068,20.068,0,0,0,4.547-1.007q3.538-1.037,15.93-.915l0.366,2.563a25.741,25.741,0,0,1,.305,5.463,38.92,38.92,0,0,1-.732,4.3h0Zm15.075-12.3q6.469,0.336,8.179,1.923t1.221,4.974q-0.489,3.387-1.679,4.608t-17.3.611l0.427-3.052a31.187,31.187,0,0,0-.03-4.15q-0.153-3.173-.214-5.066A92.629,92.629,0,0,1,337.23,91.608Z"/>
</svg>
