<svg preserveAspectRatio="xMidYMid meet" width="600" height="100" xmlns="http://www.w3.org/2000/svg">
 <defs>
  <linearGradient gradientTransform="matrix(1,0,0,1,-33.5,-112)" gradientUnits="userSpaceOnUse" y2="165.703" x2="600.844" y1="165.703" x1="61.375" id="svg_5">
   <stop stop-color="#1e3c72" offset="0"/>
   <stop stop-color="#0099e5" offset="1"/>
  </linearGradient>
 </defs>
 <g>
  <title>Layer 1</title>
  <g>

   <path fill="url(#svg_5)" fill-rule="evenodd" d="m40.755,27.857q-3.583,0.721 -5.013,7.161q0,3.584 3.581,2.149q5.01,-6.446 15.039,-5.013q4.3,2.87 -1.432,5.729a16.246,16.246 0 0 0 -5.729,-2.865q-3.584,0.721 -2.148,2.865a19.63,19.63 0 0 0 5.729,5.013q2.148,1.436 3.581,0.716c1.432,0 2.148,-0.951 2.148,-2.865a16.814,16.814 0 0 1 5.729,-3.58a6.515,6.515 0 0 0 3.581,-3.581q0.713,-4.3 -5.729,-3.581a23.892,23.892 0 0 0 -9.31,-2.864a14.585,14.585 0 0 1 -10.026,0.716l0,0l-0.001,0zm-5.729,16.471q-6.445,0 -7.161,5.729q0,2.871 2.148,2.149q6.445,-2.862 18.62,-2.865l0,12.891a23.652,23.652 0 0 1 -1.432,7.161q-3.584,6.446 -10.742,3.581a40.622,40.622 0 0 0 -5.013,-2.148q-0.722,1.434 3.581,5.729q9.307,5.731 15.755,0.716q5.01,-5.01 5.013,-13.607l0,-14.323q6.445,-0.712 6.445,2.149q-2.148,5.731 -0.716,6.445q3.575,0.721 7.162,-7.878a5.96,5.96 0 0 0 -1.432,-5.729q-1.436,-1.427 -4.3,0a136.19,136.19 0 0 1 -27.93,0l0,0l0.002,0zm36.523,-15.755q-5.018,2.148 -5.013,7.161q1.428,2.871 5.013,-0.716a27.987,27.987 0 0 1 10.743,-0.716a13.127,13.127 0 0 1 -0.716,7.162q-5.733,0.721 -7.878,-2.149q-3.584,-0.712 -4.3,2.149a30.939,30.939 0 0 1 0.716,5.729a98.548,98.548 0 0 1 -0.716,20.052a2.807,2.807 0 0 0 2.865,2.148a4.585,4.585 0 0 0 4.3,-2.864l0,-17.188q0,-5.01 6.446,-5.013l9.31,0q4.3,0 3.58,4.3q0,17.187 1.433,17.9a4.58,4.58 0 0 0 3.58,0q2.862,-2.149 2.149,-7.878q-0.721,-9.308 0.716,-12.891a6.641,6.641 0 0 0 0,-4.3a4.823,4.823 0 0 0 -4.3,-2.149q-2.87,2.148 -11.458,1.432a26.717,26.717 0 0 0 0.716,-6.445a61.183,61.183 0 0 1 14.323,2.149q5.724,2.148 7.878,-1.433q2.148,-4.3 2.148,-5.729q-3.584,0 -25.781,-0.716a84.613,84.613 0 0 1 -15.756,0l0,0l0.002,0.005zm10.743,20.768l0,9.31q0,5.731 -6.446,12.175q-5.017,5.018 -12.89,4.3c-2.389,0 -3.581,0.482 -3.581,1.433q2.862,4.3 10.742,3.58q10.02,-1.426 15.755,-11.458q3.576,-6.446 2.865,-18.62a4.15,4.15 0 0 0 -1.432,-2.864q-3.584,-1.427 -5.013,2.148l0,0l0,-0.004zm7.877,24.349a77.914,77.914 0 0 0 19.336,7.878c1.433,0 1.667,-0.716 0.716,-2.149a59.565,59.565 0 0 0 -11.458,-8.593a28.233,28.233 0 0 0 -6.445,-3.581q-6.445,2.148 -2.149,6.445l0,0zm48.7,-22.2q7.872,-0.714 15.755,-1.433q5.724,-0.713 4.3,-2.864q-0.722,-2.862 -13.607,-2.149a44.6,44.6 0 0 1 -7.161,0.716q-1.436,0.723 -1.432,-2.148a47.871,47.871 0 0 1 0.716,-7.878a65.6,65.6 0 0 0 22.2,-3.58q2.15,-2.862 -1.432,-6.446a4.754,4.754 0 0 0 -4.3,-0.716q-5.731,5.732 -17.187,5.729q-3.583,-2.862 -5.729,-2.864q-4.3,0.721 -4.3,5.013q1.427,3.583 2.148,12.89l0,6.446a122.865,122.865 0 0 1 -2.148,12.89q-0.722,6.445 7.161,6.446a72.724,72.724 0 0 0 27.93,-10.026q1.427,-2.862 -1.432,-2.865a125.625,125.625 0 0 1 -21.485,3.581q-1.435,0 -2.148,-2.149l0,-5.013q0,-2.862 2.148,-3.58l0,0l0.003,0zm42.969,-15.756q6.445,0.723 8.594,3.581q2.148,3.584 1.432,9.31a15.209,15.209 0 0 1 -6.445,10.742a50.355,50.355 0 0 1 -12.175,2.865l0,-25.065q0,-2.149 8.594,-1.433l0,0zm-19.338,-4.296a17.9,17.9 0 0 0 -2.148,4.3a2.288,2.288 0 0 0 1.432,2.149c1.432,0 2.148,0.481 2.148,1.432l0,36.524a20.85,20.85 0 0 0 0.716,5.013c0.952,1.913 2.624,2.624 5.013,2.148a3.985,3.985 0 0 0 3.581,-4.3l0,-12.892q5.01,2.871 14.323,0q5.724,-2.148 10.742,-9.309a42.084,42.084 0 0 0 2.865,-15.756q0.713,-7.158 -2.865,-10.742q-4.3,-3.574 -10.026,0a56.157,56.157 0 0 1 -17.9,0a6.408,6.408 0 0 0 -2.865,-0.716a6.863,6.863 0 0 0 -5.016,2.149l0,0zm116.016,7.877q5.723,-1.426 2.148,-5.013l-22.2,0l0,-5.013q0.713,-5.01 -6.446,-5.013q-3.583,0 -3.58,5.729l0,4.3q-12.178,0 -18.62,-2.148q-5.019,-0.714 -7.878,7.161a2.529,2.529 0 0 0 2.865,2.865q10.02,-3.576 23.633,-2.865q-16.475,18.623 -35.092,24.349q-3.584,0.722 -2.148,3.581q2.148,3.583 7.161,2.864q12.169,-2.148 30.079,-22.2a86.554,86.554 0 0 1 0,15.755q-2.871,1.436 -8.594,-0.716q-2.871,0 -5.013,5.729c0,1.432 0.951,1.914 2.864,1.432a87.265,87.265 0 0 1 10.743,-0.716q-0.723,12.177 3.58,12.175q7.16,0.721 6.446,-6.446l0,-5.729l11.458,0q3.574,-1.427 0,-4.3q-9.315,-0.712 -11.458,-1.432q-0.723,-2.862 0,-18.62q16.465,19.336 20.768,22.917q7.158,5.731 17.187,-5.729q-21.484,-7.872 -35.807,-22.917l17.9,0l0.004,0zm78.776,-15.039q-4.3,0.721 -2.865,5.729q0.714,9.317 0.716,20.768a20.008,20.008 0 0 1 -9.31,-0.716q-3.584,0 -4.3,4.3c0,1.914 0.476,2.865 1.433,2.865q2.862,-0.714 7.161,-1.433q11.456,-0.712 23.633,-0.716q3.575,0 2.148,5.013a77.141,77.141 0 0 0 -23.632,0.716a16.6,16.6 0 0 0 -5.73,-1.432q-2.148,0.722 -4.3,4.3q-0.723,3.584 2.864,3.581q5.01,-2.149 30.794,-3.581a17.9,17.9 0 0 1 -1.432,7.878l-27.93,0a23.643,23.643 0 0 0 -5.729,-0.716q-3.584,0.721 -4.3,5.013q0,3.584 4.3,2.148q7.16,-2.148 27.93,-2.148a72.389,72.389 0 0 1 10.742,2.148q2.862,0.721 2.865,-2.148q0,-12.891 2.148,-20.769q0,-5.01 -5.013,-5.729q-2.148,-0.712 -4.3,2.149a87.2,87.2 0 0 0 -10.742,-0.717q0.714,-13.6 1.432,-18.619q-1.434,-6.445 -8.593,-7.878l0,0l0.01,-0.006zm-37.24,3.581a71.084,71.084 0 0 1 0.716,10.026l-6.445,0a6.4,6.4 0 0 0 -2.865,-0.716q-2.87,0.721 -2.864,5.013a4.294,4.294 0 0 0 2.864,2.864a29.364,29.364 0 0 1 9.31,-1.432q-0.721,6.446 -10.742,13.607a29.648,29.648 0 0 0 -5.729,4.3a2.28,2.28 0 0 0 0.716,3.58q4.3,1.435 10.026,-1.432q4.3,-5.724 6.445,-7.161q0,15.761 -0.716,21.484q0.714,3.584 5.013,3.581q3.576,0 4.3,-5.013q-0.721,-15.753 -0.716,-22.2q4.3,2.148 7.878,3.581q1.426,0 2.148,-2.149a62.37,62.37 0 0 1 -10.026,-9.309l0,-2.865l6.445,0a2.888,2.888 0 0 0 2.865,-1.432q0.712,-2.862 -1.432,-3.581q-6.446,-0.714 -7.878,-1.432a18.532,18.532 0 0 1 0.716,-5.729a10.952,10.952 0 0 0 -7.161,-5.73q-3.583,0.721 -2.865,2.149l0,0l-0.003,-0.004zm21.484,11.458a6.192,6.192 0 0 0 2.149,4.3q5.01,3.584 8.594,4.3q2.148,0 1.432,-1.432a42.447,42.447 0 0 1 -5.013,-10.743q-2.871,-2.861 -5.013,-1.432a6.875,6.875 0 0 0 -2.149,5.013l0,0l0,-0.006zm25.782,6.445c-0.481,0.957 0,1.433 1.432,1.433a50.039,50.039 0 0 0 7.161,-3.581q7.872,-5.01 4.3,-10.026q-5.018,-4.3 -5.729,-1.432a41.532,41.532 0 0 1 -7.161,13.606l0,0l-0.003,0zm90.95,-9.309q7.16,0 7.162,3.58l0,7.878a1.9,1.9 0 0 0 2.148,2.148q4.3,0 3.581,-2.864a87.377,87.377 0 0 1 0.716,-12.175q-0.721,-4.3 -5.729,-3.58q-5.732,2.148 -20.052,0.716q-2.871,0.721 -4.3,-3.581a4.649,4.649 0 0 0 -2.149,-2.865a4.874,4.874 0 0 0 -3.58,-1.432a4.6,4.6 0 0 0 -3.581,3.581q-0.722,4.3 -5.013,4.3q-11.464,0.721 -16.471,-0.716q-3.584,-0.714 -5.013,3.58q0,5.733 -0.717,13.607c0.476,1.913 1.192,2.865 2.149,2.865q2.862,0 3.581,-2.149a44.621,44.621 0 0 0 0.716,-8.594q0,-4.3 5.013,-4.3a86.911,86.911 0 0 1 15.755,0a231.288,231.288 0 0 1 25.781,0l0,0l0.003,0.001zm-26.5,2.148l-2.149,3.581a27.835,27.835 0 0 1 -10.026,-1.433a9.059,9.059 0 0 0 -3.58,2.149a27.021,27.021 0 0 0 -1.433,3.581q0,2.869 3.581,0.716a34.169,34.169 0 0 1 9.31,-1.433q-0.721,1.436 -1.432,2.865t10.026,3.581a65.209,65.209 0 0 1 -17.188,2.148a3.982,3.982 0 0 0 4.3,3.581a42.683,42.683 0 0 0 17.9,-4.3q9.306,2.869 15.755,4.3q3.574,0.721 4.3,-0.716a4.752,4.752 0 0 0 -2.149,-2.149q-9.315,-2.862 -15.039,-4.3q2.149,-2.86 4.3,-5.729l11.456,0c1.432,0 2.148,-0.475 2.148,-1.432s-0.957,-1.667 -2.865,-2.148l-22.915,0q2.862,-2.862 -0.716,-3.581a3.252,3.252 0 0 0 -3.581,0.716l0,0l-0.003,0.003zm-27.214,22.917a7.756,7.756 0 0 0 -6.445,1.432a16.6,16.6 0 0 0 -2.865,4.3q-0.721,3.583 4.3,1.432q6.446,-3.574 33.659,-4.3l0,15.755a4.811,4.811 0 0 0 4.3,2.149a6.955,6.955 0 0 0 4.3,-2.865a137.173,137.173 0 0 1 -0.716,-15.039a83.145,83.145 0 0 1 21.484,2.865q5.724,3.583 10.026,1.432q3.576,-2.148 6.445,-7.878q-5.731,0 -28.645,-0.716l-9.31,0q0,-2.148 -2.865,-3.58a3.051,3.051 0 0 0 -2.864,0a4.821,4.821 0 0 0 -2.149,4.3a199.507,199.507 0 0 1 -28.646,0.717l0,0l-0.009,-0.004zm35.091,-12.175q-5.732,-1.427 -7.877,-2.148a4.7,4.7 0 0 1 2.148,-2.149q2.862,-0.713 9.31,0a28.493,28.493 0 0 1 -3.581,4.3l0,0l0,-0.003zm-35.807,30.078q4.3,1.435 11.458,-0.716q8.6,-2.862 12.891,-6.445q1.427,-2.148 -0.716,-4.3a3.254,3.254 0 0 0 -3.581,-0.716a67.913,67.913 0 0 1 -20.052,12.174l0,0l0,0.003zm42.253,-10.026q-1.435,2.149 0,3.581a77.15,77.15 0 0 0 22.2,7.878q1.427,-1.428 -7.877,-6.446q-5.019,-2.862 -9.31,-5.729q-2.871,-2.148 -5.013,0.716l0,0zm88.8,-10.742q10.742,-0.714 15.755,0.716q1.427,0.722 4.3,-1.432a3.253,3.253 0 0 0 0.716,-3.581a14.531,14.531 0 0 1 0,-6.445a2.939,2.939 0 0 0 -0.716,-2.149q-3.584,-2.148 -5.013,-1.432a6.37,6.37 0 0 0 -2.865,0.716a51.49,51.49 0 0 1 -12.174,0a6.109,6.109 0 0 0 -5.729,0a2.888,2.888 0 0 0 -1.433,2.865a120.446,120.446 0 0 1 -0.716,29.362q0,4.3 4.3,2.864a11.588,11.588 0 0 1 5.013,-1.432q12.891,-0.713 17.9,1.432q2.148,1.436 5.013,-1.432a4,4 0 0 0 1.432,-2.148a18.931,18.931 0 0 1 0.716,-9.31q0.714,-1.426 -2.864,-4.3c-1.433,-0.951 -2.63,-1.192 -3.581,-0.716a6.33,6.33 0 0 1 -2.865,0.716a102.534,102.534 0 0 1 -17.187,0q-0.721,-2.862 0,-4.3l0,0l-0.002,0.006zm17.187,8.594a8.622,8.622 0 0 1 1.433,2.148q0.712,5.019 -4.3,4.3a70.555,70.555 0 0 1 -14.323,0a26.425,26.425 0 0 1 -0.716,-6.445a112.36,112.36 0 0 1 17.9,0l0,0l0.006,-0.003zm-3.578,-17.188q1.426,3.584 -2.149,4.3a45.671,45.671 0 0 1 -11.458,0a6.578,6.578 0 0 1 0,-4.3q9.308,-1.427 13.607,0l0,0zm-47.266,-21.484a40.083,40.083 0 0 1 -11.455,14.327q-4.3,3.584 -4.3,6.445q0.713,2.148 6.445,-0.716a116.884,116.884 0 0 0 12.175,-9.31q8.594,0 7.161,2.149a11.659,11.659 0 0 1 -5.013,5.729l-2.147,-1.437a3.252,3.252 0 0 0 -3.581,0.717q-1.436,1.434 -0.716,5.013q1.427,4.3 0.716,11.458q0,7.167 -3.581,11.458q-2.148,2.871 5.013,5.729q1.427,0.723 6.445,-2.864a87.374,87.374 0 0 0 7.162,-6.445a50.1,50.1 0 0 0 3.581,-7.162c0,-1.432 -0.481,-2.148 -1.433,-2.148a24.91,24.91 0 0 1 -5.013,5.013q-5.731,4.3 -5.729,0.716l0,-5.013a100.6,100.6 0 0 1 0.716,-13.607a32.919,32.919 0 0 0 11.459,-8.594q0.712,-3.575 -2.865,-5.013a30.169,30.169 0 0 1 -9.31,0q5.01,-3.575 0.716,-8.594q-3.583,-3.575 -6.445,2.149l0,0l-0.001,0zm34.375,-1.432a29.963,29.963 0 0 0 -0.716,7.161a51.806,51.806 0 0 1 -8.594,0.716a4.742,4.742 0 0 0 -5.013,0q-2.148,1.435 -2.148,7.162a33.947,33.947 0 0 0 1.432,9.31q2.862,2.148 3.581,-0.717a61.652,61.652 0 0 1 0.716,-8.593q1.427,-2.862 10.026,-3.581l17.187,0q9.308,0.722 8.594,8.594a8.053,8.053 0 0 0 0.716,5.729q2.149,2.148 3.581,-0.716q0.714,-5.01 1.432,-10.026q1.427,-2.862 0.716,-4.3q-2.87,-5.01 -5.729,-4.3a8.812,8.812 0 0 1 -5.013,1.432a58.936,58.936 0 0 1 -10.742,-0.716q0.714,-8.593 -5.013,-9.31q-3.583,0 -5.013,2.149l0,0l0,0.006z" class="cls-2" data-name="形状 3" id="svg_4"/>
  </g>
 </g>
</svg>
