<svg xmlns="http://www.w3.org/2000/svg" xmlns:xlink="http://www.w3.org/1999/xlink" width="650" height="354" viewBox="0 0 650 354">
  <defs>
    <style>
      .cls-1 {
        stroke: #000;
        stroke-width: 1px;
        fill-rule: evenodd;
        fill: url(#linear-gradient);
      }
    </style>
    <linearGradient id="linear-gradient" x1="166.812" y1="144.172" x2="483.469" y2="144.172" gradientUnits="userSpaceOnUse">
      <stop offset="0" stop-color="#1e3c72"/>
      <stop offset="1" stop-color="#0099e5"/>
    </linearGradient>
  </defs>
  <path id="英文logo上边" class="cls-1" d="M313.807,61.243l0.488,4.211a13.421,13.421,0,0,0,1.984,5.615,28.166,28.166,0,0,0,3.479,5.066,19.058,19.058,0,0,0,4.791,3.54,12.237,12.237,0,0,0,5.249,1.831q2.074,0.061,1.953-1.5a11.249,11.249,0,0,0-.3-2.136q-0.183-.579-2.746-2.045a26.133,26.133,0,0,1-5.371-4.272,13.085,13.085,0,0,1-3.51-5.157,28.9,28.9,0,0,1-1.007-5.218l11.9-.793,0.244,2.319a16.553,16.553,0,0,0,1.068,4.944,22.762,22.762,0,0,0,2.045,4.059,16.518,16.518,0,0,0,4.364,4.059,31.2,31.2,0,0,0,5.035,3.052q3.54,1.709,4.578.122a2.89,2.89,0,0,0,.61-2.625q-0.428-1.037-3.479-2.655a30.389,30.389,0,0,1-5.218-3.418,10.294,10.294,0,0,1-3.144-4.486,8.212,8.212,0,0,1-.671-3.357q0.06-1.525.183-2.624a31.851,31.851,0,0,0,8-1.007q2.989-.884,3.54-1.984a2.313,2.313,0,0,0-.366-3.021q-1.283-1.129-6.073-.183a98.239,98.239,0,0,1-14.1,1.312q-9.308.366-13.885,0.7a33.73,33.73,0,0,0-8.087,1.5,14.574,14.574,0,0,0-5.463,2.991q-3.968,3.724-3.815,7.843A15.75,15.75,0,0,0,298,75.19q1.77,3.144,7.874,6.561,4.088,2.38,5.249.641a3.657,3.657,0,0,0,.793-2.991q-0.366-1.25-4.272-3.906t-4.822-4.3A6.284,6.284,0,0,1,301.9,67.1a4.576,4.576,0,0,1,3.388-4.517,20.053,20.053,0,0,1,3.753-.7q2.44-.275,4.761-0.641h0Zm6.348,42.664-4.944.122-7.813.122a17.784,17.784,0,0,0-5.493,1.5,9.115,9.115,0,0,0-4.272,4.486,13.079,13.079,0,0,0-1.374,6.165,17.434,17.434,0,0,0,1.252,6.439q1.219,3.021,7.934,4a32.618,32.618,0,0,0,6.195.061q4.181-.243,9.186-0.336a44.3,44.3,0,0,1,8.911.641q3.906,0.732,5.554,2.35a14.707,14.707,0,0,1,2.839,4.028,28.855,28.855,0,0,1,2.075,6.562,71.5,71.5,0,0,1,1.068,12.329l0.061,6.53a55.7,55.7,0,0,1-.244,6.1,6.249,6.249,0,0,0,.061,2.746,2.548,2.548,0,0,0,2.869,2.015,2.806,2.806,0,0,0,2.166-.916,5.517,5.517,0,0,0,.946-2.777,55.339,55.339,0,0,0,.305-5.585q0-3.54-.091-5.554t-0.641-7.843q-0.549-5.827-1.038-8.331a39.957,39.957,0,0,0-2.288-6.9,18.448,18.448,0,0,0-4.944-7.111,18.933,18.933,0,0,0-8.118-3.906q-4.976-1.189-15.228-.458-5.982.489-7.843,0.427a6.314,6.314,0,0,1-2.838-.61,4.407,4.407,0,0,1-1.679-1.922,6.9,6.9,0,0,1-.763-2.9,5.51,5.51,0,0,1,1.374-4.181q1.556-1.8,9.124-1.983h20.02q5.37,0.183,8.453.122a9.182,9.182,0,0,0,5.524-1.923,8.946,8.946,0,0,0,3.174-5.707,26.918,26.918,0,0,0-.031-5.92,10.344,10.344,0,0,0-2.563-6.5q-2.229-2.349-8.3-3.235a115.307,115.307,0,0,0-16.449-.824q-6.531.061-14.709,0.824t-9.369,2.258a4.4,4.4,0,0,0-1.191,2.411,2.341,2.341,0,0,0,.824,1.953,2.932,2.932,0,0,0,1.893.824,20.068,20.068,0,0,0,4.547-1.007q3.538-1.037,15.93-.915l0.366,2.563a25.741,25.741,0,0,1,.305,5.463,38.92,38.92,0,0,1-.732,4.3h0Zm15.075-12.3q6.469,0.336,8.179,1.923t1.221,4.974q-0.489,3.387-1.679,4.608t-17.3.611l0.427-3.052a31.187,31.187,0,0,0-.03-4.15q-0.153-3.173-.214-5.066A92.629,92.629,0,0,1,335.23,91.608ZM217.121,171.752a6.965,6.965,0,0,1-1.656,3.357,2.951,2.951,0,0,1-2.1.851,7.036,7.036,0,0,1-2.686-.985,28.594,28.594,0,0,0-12.98-3.223,30.305,30.305,0,0,0-15.6,4.185,29.481,29.481,0,0,0-11.212,11.794,34.825,34.825,0,0,0-4.073,16.7,31.991,31.991,0,0,0,6.177,19.6q8.28,11.19,23.364,11.19a26.957,26.957,0,0,0,14.457-3.76Q216.9,227.7,221.463,219.6l-1.387-.895q-5.416,7.519-9.937,10.048a21,21,0,0,1-10.429,2.529,22.843,22.843,0,0,1-12.107-3.223,19.778,19.778,0,0,1-7.945-9.265,35.439,35.439,0,0,1-2.641-14.278q0-9.981,2.8-16.695t7.676-9.78a20.109,20.109,0,0,1,10.921-3.066,19.3,19.3,0,0,1,12.354,4.073q5.147,4.074,7.922,13.338h1.388l-1.388-20.634h-1.567Zm22.335,19.873h-1.924l-12.354,5.014,0.671,1.611a8.6,8.6,0,0,1,3-.672,2.8,2.8,0,0,1,1.858.582,3.859,3.859,0,0,1,1.029,2.194,66.075,66.075,0,0,1,.336,9v15.218q0,4.476-1.1,6.065t-4.229,1.589h-0.9v1.611h20.276v-1.611a10.665,10.665,0,0,1-4.453-.6,4.132,4.132,0,0,1-1.723-1.9q-0.494-.984-0.493-5.147V202.95q5.282-5.818,10.608-5.819a5.194,5.194,0,0,1,4.9,2.529q1.455,2.529,1.455,8.124v16.784a26.208,26.208,0,0,1-.179,4.208,4.577,4.577,0,0,1-1.589,2.573,6.825,6.825,0,0,1-4.006.873H249.8v1.611h20.275v-1.611a8.983,8.983,0,0,1-4.05-.627,3.666,3.666,0,0,1-1.589-1.745,14.741,14.741,0,0,1-.627-5.282v-17.5a25.58,25.58,0,0,0-.985-8.235,11.242,11.242,0,0,0-3.849-5.528,9.868,9.868,0,0,0-5.774-1.679q-6.536,0-13.741,8.684v-8.684Zm76.628,30.616a18.574,18.574,0,0,1,1.79,6.221,3.117,3.117,0,0,1-1.275,2.507q-1.276,1.031-4.9,1.208v1.656h23.947v-1.656a9.445,9.445,0,0,1-5.8-2.036q-2.081-1.814-4.632-7.9l-21.127-50.489h-1.566L281.172,221.7q-2.776,6.579-5.058,8.728-1.119,1.074-4.924,1.745v1.656H290.3v-1.656q-4.388-.312-5.707-1.365a3.066,3.066,0,0,1-1.321-2.439,15.159,15.159,0,0,1,1.522-5.282l4.118-9.578h23.5ZM290.3,210.2l10.563-24.528L311.16,210.2H290.3Zm59.35-18.576-12.4,5.014,0.447,1.611a8.845,8.845,0,0,1,3.134-.672,3.025,3.025,0,0,1,1.947.627,3.352,3.352,0,0,1,1.074,1.992,66.017,66.017,0,0,1,.291,8.526v15.89a23.03,23.03,0,0,1-.224,4.342,3.823,3.823,0,0,1-1.567,2.282,8.708,8.708,0,0,1-4.655.985v1.611h20.992v-1.611a9.045,9.045,0,0,1-4.252-.806,4.638,4.638,0,0,1-2.059-2.014,12.162,12.162,0,0,1-.85-5.147V204.606a21.537,21.537,0,0,1,4.163-6.043,2.666,2.666,0,0,1,1.745-.895,5.8,5.8,0,0,1,2.887,1.544,5.907,5.907,0,0,0,3.514,1.544,3.719,3.719,0,0,0,2.775-1.208,4.1,4.1,0,0,0,1.164-2.954,4.613,4.613,0,0,0-1.612-3.469,5.748,5.748,0,0,0-4.073-1.5q-5.416,0-10.563,9.221v-9.221h-1.88Zm18.754,2.865a7.913,7.913,0,0,1,4.543,1.231q1.814,1.231,5.125,6.065l7.788,11.279-8.593,11.414q-4.029,5.326-5.73,6.624a6.041,6.041,0,0,1-2.819,1.119v1.611H382.1v-1.611a4.849,4.849,0,0,1-3.021-.962,2.55,2.55,0,0,1-1.007-1.947q0-.76,3.044-4.834l6.579-8.773,6,8.773q2.863,4.162,2.865,5.192a1.961,1.961,0,0,1-.851,1.656,4.893,4.893,0,0,1-3.133.9v1.611h19.336v-1.611a8.029,8.029,0,0,1-4.163-1.231q-1.611-1.1-5.371-6.512L392.174,209.8l5.6-7.475q3.8-5.1,6-6.624a7.553,7.553,0,0,1,3.8-1.209v-1.656H393.7v1.656a3.776,3.776,0,0,1,2.462.649,2.013,2.013,0,0,1,.761,1.589q0,1.164-3.223,5.595l-3.357,4.655-2.909-4.655q-0.985-1.521-1.477-2.238a7.028,7.028,0,0,1-1.567-3.312,2.064,2.064,0,0,1,.739-1.656,4.029,4.029,0,0,1,2.573-.627v-1.656H368.407v1.656Zm54.673-22.984a4.55,4.55,0,1,0,6.446,6.423,4.432,4.432,0,0,0,1.32-3.222,4.507,4.507,0,0,0-4.521-4.521A4.411,4.411,0,0,0,423.08,171.506Zm4.991,20.119-12.353,5.014,0.626,1.611a8.951,8.951,0,0,1,3.044-.672,2.782,2.782,0,0,1,1.835.56,3.509,3.509,0,0,1,.985,1.992,55.982,55.982,0,0,1,.4,8.638v15.8a14.459,14.459,0,0,1-.6,5.147,3.985,3.985,0,0,1-1.633,1.925,9.276,9.276,0,0,1-4.029.582v1.611h19.918v-1.611a8.845,8.845,0,0,1-4.006-.627,3.921,3.921,0,0,1-1.656-1.9,15.081,15.081,0,0,1-.56-5.125V191.625h-1.969Zm11.19,2.865a11.208,11.208,0,0,1,3,.761,7.44,7.44,0,0,1,2.282,1.768,13.316,13.316,0,0,1,1.88,3.469l14.637,34.6h1.835l14.546-35.181a11.438,11.438,0,0,1,2.82-4.476,5.816,5.816,0,0,1,3.223-.94v-1.656H470.1v1.656a12.28,12.28,0,0,1,3.088.246,2.476,2.476,0,0,1,1.254.918,1.494,1.494,0,0,1,.358,1.029,11.175,11.175,0,0,1-1.03,3.805l-9.578,23.5-9.534-22.648a9.539,9.539,0,0,1-.94-3.715,2.965,2.965,0,0,1,.918-2.283,3.784,3.784,0,0,1,2.663-.85h1.253v-1.656H439.261v1.656Z"/>
</svg>
