<svg width="425" height="120" xmlns="http://www.w3.org/2000/svg">
 <defs>
  <linearGradient y2="0.49972" x2="0.99997" y1="0.49972" x1="-0.00002" id="linear-gradient">
   <stop stop-color="#1e3c72" offset="0"/>
   <stop stop-color="#0099e5" offset="1"/>
  </linearGradient>
 </defs>
 <g>
  <title>Layer 1</title>
  <path fill="url(#linear-gradient)" fill-rule="evenodd" stroke-width="1px" stroke="#000" d="m21.13308,9.85169l0.488,4.212a13.423,13.423 0 0 0 1.984,5.615a28.189,28.189 0 0 0 3.479,5.066a19.082,19.082 0 0 0 4.791,3.54a12.245,12.245 0 0 0 5.249,1.831q2.075,0.061 1.953,-1.5a11.25,11.25 0 0 0 -0.305,-2.136q-0.183,-0.579 -2.746,-2.044a26.158,26.158 0 0 1 -5.371,-4.273a13.083,13.083 0 0 1 -3.51,-5.157a28.905,28.905 0 0 1 -1.007,-5.219l11.9,-0.793l0.244,2.319a16.554,16.554 0 0 0 1.068,4.944a22.768,22.768 0 0 0 2.045,4.059a16.531,16.531 0 0 0 4.364,4.059a31.223,31.223 0 0 0 5.035,3.051q3.54,1.71 4.578,0.122a2.889,2.889 0 0 0 0.61,-2.624q-0.427,-1.038 -3.479,-2.655a30.4,30.4 0 0 1 -5.218,-3.418a10.3,10.3 0 0 1 -3.144,-4.486a8.214,8.214 0 0 1 -0.671,-3.357q0.06,-1.525 0.183,-2.625a31.819,31.819 0 0 0 8,-1.007q2.99,-0.883 3.54,-1.983a2.314,2.314 0 0 0 -0.366,-3.022q-1.282,-1.128 -6.073,-0.183a98.263,98.263 0 0 1 -14.1,1.313q-9.308,0.366 -13.885,0.7a33.748,33.748 0 0 0 -8.087,1.5a14.576,14.576 0 0 0 -5.463,2.99q-3.968,3.725 -3.815,7.843a15.761,15.761 0 0 0 1.922,7.265q1.77,3.144 7.874,6.561q4.087,2.38 5.249,0.641a3.657,3.657 0 0 0 0.793,-2.991q-0.366,-1.25 -4.272,-3.906t-4.822,-4.3a6.288,6.288 0 0 1 -0.916,-4.089a4.575,4.575 0 0 1 3.388,-4.517a20.06,20.06 0 0 1 3.753,-0.7q2.441,-0.275 4.761,-0.641l0,0l-0.001,-0.005zm6.348,42.664l-4.944,0.122l-7.813,0.122a17.781,17.781 0 0 0 -5.493,1.495a9.119,9.119 0 0 0 -4.272,4.486a13.072,13.072 0 0 0 -1.373,6.168a17.425,17.425 0 0 0 1.251,6.439q1.22,3.021 7.934,4a32.618,32.618 0 0 0 6.2,0.061q4.181,-0.243 9.186,-0.336a44.3,44.3 0 0 1 8.911,0.641q3.906,0.732 5.554,2.35a14.707,14.707 0 0 1 2.839,4.028a28.855,28.855 0 0 1 2.075,6.562a71.5,71.5 0 0 1 1.068,12.329l0.061,6.53a55.7,55.7 0 0 1 -0.244,6.1a6.249,6.249 0 0 0 0.061,2.746a2.548,2.548 0 0 0 2.869,2.015a2.806,2.806 0 0 0 2.166,-0.916a5.517,5.517 0 0 0 0.946,-2.777a55.339,55.339 0 0 0 0.305,-5.585q0,-3.54 -0.091,-5.554t-0.641,-7.843q-0.549,-5.827 -1.038,-8.331a39.957,39.957 0 0 0 -2.288,-6.9a18.448,18.448 0 0 0 -4.944,-7.111a18.933,18.933 0 0 0 -8.118,-3.906q-4.975,-1.19 -15.228,-0.458q-5.982,0.489 -7.843,0.427a6.314,6.314 0 0 1 -2.838,-0.61a4.406,4.406 0 0 1 -1.679,-1.922a6.9,6.9 0 0 1 -0.763,-2.9a5.51,5.51 0 0 1 1.374,-4.181q1.555,-1.8 9.124,-1.983l20.02,0q5.37,0.183 8.453,0.122a9.182,9.182 0 0 0 5.524,-1.923a8.946,8.946 0 0 0 3.174,-5.707a26.919,26.919 0 0 0 -0.031,-5.92a10.343,10.343 0 0 0 -2.563,-6.5q-2.229,-2.349 -8.3,-3.235a115.364,115.364 0 0 0 -16.449,-0.824q-6.531,0.061 -14.709,0.824t-9.369,2.258a4.4,4.4 0 0 0 -1.19,2.411a2.338,2.338 0 0 0 0.824,1.953a2.926,2.926 0 0 0 1.892,0.824a20.024,20.024 0 0 0 4.547,-1.007q3.538,-1.036 15.93,-0.915l0.366,2.563a25.744,25.744 0 0 1 0.305,5.463a38.926,38.926 0 0 1 -0.732,4.3l0,0l-0.006,0.005zm15.075,-12.3q6.47,0.336 8.179,1.923t1.221,4.974q-0.489,3.387 -1.679,4.608t-17.3,0.611l0.427,-3.052a31.193,31.193 0 0 0 -0.03,-4.151q-0.153,-3.172 -0.214,-5.065a92.35,92.35 0 0 1 9.396,0.153l0,-0.001zm113.891,-11.856a6.965,6.965 0 0 1 -1.656,3.357a2.951,2.951 0 0 1 -2.1,0.851a7.036,7.036 0 0 1 -2.686,-0.985a28.594,28.594 0 0 0 -12.98,-3.223a30.305,30.305 0 0 0 -15.6,4.185a29.481,29.481 0 0 0 -11.212,11.794a34.825,34.825 0 0 0 -4.073,16.7a31.991,31.991 0 0 0 6.177,19.6q8.28,11.19 23.364,11.19a26.957,26.957 0 0 0 14.457,-3.76q6.088,-3.76 10.651,-11.86l-1.387,-0.895q-5.416,7.519 -9.937,10.048a21,21 0 0 1 -10.429,2.529a22.843,22.843 0 0 1 -12.107,-3.223a19.778,19.778 0 0 1 -7.945,-9.265a35.439,35.439 0 0 1 -2.641,-14.278q0,-9.981 2.8,-16.695t7.676,-9.78a20.109,20.109 0 0 1 10.921,-3.066a19.3,19.3 0 0 1 12.354,4.073q5.147,4.074 7.922,13.338l1.388,0l-1.388,-20.634l-1.567,0l-0.002,-0.001zm22.335,19.873l-1.924,0l-12.354,5.014l0.671,1.611a8.6,8.6 0 0 1 3,-0.672a2.8,2.8 0 0 1 1.858,0.582a3.859,3.859 0 0 1 1.029,2.194a66.075,66.075 0 0 1 0.336,9l0,15.218q0,4.476 -1.1,6.065t-4.229,1.589l-0.9,0l0,1.611l20.276,0l0,-1.611a10.665,10.665 0 0 1 -4.453,-0.6a4.132,4.132 0 0 1 -1.723,-1.9q-0.493,-0.984 -0.493,-5.147l0,-21.628q5.281,-5.818 10.608,-5.819a5.194,5.194 0 0 1 4.9,2.529q1.455,2.529 1.455,8.124l0,16.784a26.208,26.208 0 0 1 -0.179,4.208a4.577,4.577 0 0 1 -1.589,2.573a6.825,6.825 0 0 1 -4.006,0.873l-0.839,0l0,1.611l20.275,0l0,-1.611a8.983,8.983 0 0 1 -4.05,-0.627a3.666,3.666 0 0 1 -1.589,-1.745a14.741,14.741 0 0 1 -0.627,-5.282l0,-17.5a25.58,25.58 0 0 0 -0.985,-8.235a11.242,11.242 0 0 0 -3.849,-5.528a9.868,9.868 0 0 0 -5.774,-1.679q-6.536,0 -13.741,8.684l0,-8.684l-0.004,-0.002zm76.628,30.616a18.574,18.574 0 0 1 1.79,6.221a3.117,3.117 0 0 1 -1.275,2.507q-1.276,1.031 -4.9,1.208l0,1.656l23.947,0l0,-1.656a9.445,9.445 0 0 1 -5.8,-2.036q-2.081,-1.814 -4.632,-7.9l-21.127,-50.489l-1.566,0l-21.349,49.949q-2.776,6.579 -5.058,8.728q-1.119,1.074 -4.924,1.745l0,1.656l19.11,0l0,-1.656q-4.388,-0.312 -5.707,-1.365a3.066,3.066 0 0 1 -1.321,-2.439a15.159,15.159 0 0 1 1.522,-5.282l4.118,-9.578l23.5,0l3.672,8.731zm-25.784,-12.04l10.563,-24.528l10.297,24.528l-20.86,0zm59.35,-18.576l-12.4,5.014l0.447,1.611a8.845,8.845 0 0 1 3.134,-0.672a3.025,3.025 0 0 1 1.947,0.627a3.352,3.352 0 0 1 1.074,1.992a66.017,66.017 0 0 1 0.291,8.526l0,15.89a23.03,23.03 0 0 1 -0.224,4.342a3.823,3.823 0 0 1 -1.567,2.282a8.708,8.708 0 0 1 -4.655,0.985l0,1.611l20.992,0l0,-1.611a9.045,9.045 0 0 1 -4.252,-0.806a4.638,4.638 0 0 1 -2.059,-2.014a12.162,12.162 0 0 1 -0.85,-5.147l0,-19.648a21.537,21.537 0 0 1 4.163,-6.043a2.666,2.666 0 0 1 1.745,-0.895a5.8,5.8 0 0 1 2.887,1.544a5.907,5.907 0 0 0 3.514,1.544a3.719,3.719 0 0 0 2.775,-1.208a4.1,4.1 0 0 0 1.164,-2.954a4.613,4.613 0 0 0 -1.612,-3.469a5.748,5.748 0 0 0 -4.073,-1.5q-5.416,0 -10.563,9.221l0,-9.221l-1.88,0l0.002,-0.001zm18.754,2.865a7.913,7.913 0 0 1 4.543,1.231q1.814,1.231 5.125,6.065l7.788,11.279l-8.593,11.414q-4.029,5.326 -5.73,6.624a6.041,6.041 0 0 1 -2.819,1.119l0,1.611l13.382,0l0,-1.611a4.849,4.849 0 0 1 -3.021,-0.962a2.55,2.55 0 0 1 -1.007,-1.947q0,-0.76 3.044,-4.834l6.579,-8.773l6,8.773q2.863,4.162 2.865,5.192a1.961,1.961 0 0 1 -0.851,1.656a4.893,4.893 0 0 1 -3.133,0.9l0,1.611l19.336,0l0,-1.611a8.029,8.029 0 0 1 -4.163,-1.231q-1.611,-1.1 -5.371,-6.512l-10.204,-14.683l5.6,-7.475q3.8,-5.1 6,-6.624a7.553,7.553 0 0 1 3.8,-1.209l0,-1.656l-13.874,0l0,1.656a3.776,3.776 0 0 1 2.462,0.649a2.013,2.013 0 0 1 0.761,1.589q0,1.164 -3.223,5.595l-3.357,4.655l-2.909,-4.655q-0.985,-1.521 -1.477,-2.238a7.028,7.028 0 0 1 -1.567,-3.312a2.064,2.064 0 0 1 0.739,-1.656a4.029,4.029 0 0 1 2.573,-0.627l0,-1.656l-19.295,0l0,1.656l-0.003,-0.003zm54.673,-22.984a4.55,4.55 0 1 0 6.446,6.423a4.432,4.432 0 0 0 1.32,-3.222a4.507,4.507 0 0 0 -4.521,-4.521a4.411,4.411 0 0 0 -3.242,1.321l-0.003,-0.001zm4.991,20.119l-12.353,5.014l0.626,1.611a8.951,8.951 0 0 1 3.044,-0.672a2.782,2.782 0 0 1 1.835,0.56a3.509,3.509 0 0 1 0.985,1.992a55.982,55.982 0 0 1 0.4,8.638l0,15.8a14.459,14.459 0 0 1 -0.6,5.147a3.985,3.985 0 0 1 -1.633,1.925a9.276,9.276 0 0 1 -4.029,0.582l0,1.611l19.918,0l0,-1.611a8.845,8.845 0 0 1 -4.006,-0.627a3.921,3.921 0 0 1 -1.656,-1.9a15.081,15.081 0 0 1 -0.56,-5.125l0,-32.944l-1.969,0l-0.002,-0.001zm11.19,2.865a11.208,11.208 0 0 1 3,0.761a7.44,7.44 0 0 1 2.282,1.768a13.316,13.316 0 0 1 1.88,3.469l14.637,34.6l1.835,0l14.546,-35.181a11.438,11.438 0 0 1 2.82,-4.476a5.816,5.816 0 0 1 3.223,-0.94l0,-1.656l-13.381,0l0,1.656a12.28,12.28 0 0 1 3.088,0.246a2.476,2.476 0 0 1 1.254,0.918a1.494,1.494 0 0 1 0.358,1.029a11.175,11.175 0 0 1 -1.03,3.805l-9.578,23.5l-9.534,-22.648a9.539,9.539 0 0 1 -0.94,-3.715a2.965,2.965 0 0 1 0.918,-2.283a3.784,3.784 0 0 1 2.663,-0.85l1.253,0l0,-1.656l-19.291,0l0,1.656l-0.003,-0.003z" class="cls-1" data-name="形状 3 拷贝" id="形状_3_拷贝"/>
 </g>
</svg>