<svg preserveAspectRatio="xMidYMid meet" width="400" height="100" xmlns="http://www.w3.org/2000/svg">
 <defs>
  <linearGradient gradientTransform="matrix(1,0,0,1,-141.1437225341797,-108.7071533203125)" gradientUnits="userSpaceOnUse" y2="158.703" x2="499.469" y1="158.703" x1="182.812" id="svg_8">
   <stop stop-color="#1e3c72" offset="0"/>
   <stop stop-color="#0099e5" offset="1"/>
  </linearGradient>
 </defs>
 <g>
  <title>Layer 1</title>
  <g>

   <path fill="url(#svg_8)" fill-rule="evenodd" d="m91.97728,19.04485a6.965,6.965 0 0 1 -1.656,3.357a2.951,2.951 0 0 1 -2.1,0.851a7.036,7.036 0 0 1 -2.686,-0.985a28.594,28.594 0 0 0 -12.98,-3.223a30.305,30.305 0 0 0 -15.6,4.185a29.481,29.481 0 0 0 -11.212,11.794a34.825,34.825 0 0 0 -4.073,16.7a31.991,31.991 0 0 0 6.177,19.6q8.28,11.19 23.364,11.19a26.957,26.957 0 0 0 14.457,-3.76q6.088,-3.761 10.651,-11.861l-1.387,-0.895q-5.416,7.519 -9.937,10.048a21,21 0 0 1 -10.429,2.529a22.843,22.843 0 0 1 -12.107,-3.223a19.778,19.778 0 0 1 -7.945,-9.265a35.439,35.439 0 0 1 -2.641,-14.278q0,-9.981 2.8,-16.695t7.676,-9.78a20.109,20.109 0 0 1 10.921,-3.066a19.3,19.3 0 0 1 12.354,4.073q5.147,4.074 7.922,13.338l1.388,0l-1.388,-20.634l-1.567,0l-0.002,0zm22.335,19.873l-1.924,0l-12.354,5.014l0.671,1.611a8.6,8.6 0 0 1 3,-0.672a2.8,2.8 0 0 1 1.858,0.582a3.859,3.859 0 0 1 1.029,2.194a66.075,66.075 0 0 1 0.336,9l0,15.218q0,4.476 -1.1,6.065t-4.229,1.589l-0.9,0l0,1.611l20.276,0l0,-1.611a10.665,10.665 0 0 1 -4.453,-0.6a4.132,4.132 0 0 1 -1.723,-1.9q-0.494,-0.984 -0.493,-5.147l0,-21.629q5.281,-5.818 10.608,-5.819a5.194,5.194 0 0 1 4.9,2.529q1.455,2.529 1.455,8.124l0,16.784a26.208,26.208 0 0 1 -0.179,4.208a4.577,4.577 0 0 1 -1.589,2.573a6.825,6.825 0 0 1 -4.006,0.873l-0.839,0l0,1.611l20.275,0l0,-1.611a8.983,8.983 0 0 1 -4.05,-0.627a3.666,3.666 0 0 1 -1.589,-1.745a14.741,14.741 0 0 1 -0.627,-5.282l0,-17.5a25.58,25.58 0 0 0 -0.985,-8.235a11.242,11.242 0 0 0 -3.849,-5.528a9.868,9.868 0 0 0 -5.774,-1.679q-6.536,0 -13.741,8.684l0,-8.684l-0.004,-0.001zm76.628,30.616a18.574,18.574 0 0 1 1.79,6.221a3.117,3.117 0 0 1 -1.275,2.507q-1.276,1.031 -4.9,1.208l0,1.656l23.947,0l0,-1.656a9.445,9.445 0 0 1 -5.8,-2.036q-2.081,-1.814 -4.632,-7.9l-21.127,-50.489l-1.566,0l-21.349,49.948q-2.776,6.579 -5.058,8.728q-1.119,1.074 -4.924,1.745l0,1.656l19.11,0l0,-1.656q-4.388,-0.312 -5.707,-1.365a3.066,3.066 0 0 1 -1.321,-2.439a15.159,15.159 0 0 1 1.522,-5.282l4.118,-9.578l23.5,0l3.672,8.732zm-25.784,-12.041l10.563,-24.528l10.297,24.528l-20.86,0zm59.35,-18.576l-12.4,5.014l0.447,1.611a8.845,8.845 0 0 1 3.134,-0.672a3.025,3.025 0 0 1 1.947,0.627a3.352,3.352 0 0 1 1.074,1.992a66.017,66.017 0 0 1 0.291,8.526l0,15.89a23.03,23.03 0 0 1 -0.224,4.342a3.823,3.823 0 0 1 -1.567,2.282a8.708,8.708 0 0 1 -4.655,0.985l0,1.611l20.992,0l0,-1.611a9.045,9.045 0 0 1 -4.252,-0.806a4.638,4.638 0 0 1 -2.059,-2.014a12.162,12.162 0 0 1 -0.85,-5.147l0,-19.648a21.537,21.537 0 0 1 4.163,-6.043a2.666,2.666 0 0 1 1.745,-0.895a5.8,5.8 0 0 1 2.887,1.544a5.907,5.907 0 0 0 3.514,1.544a3.719,3.719 0 0 0 2.775,-1.208a4.1,4.1 0 0 0 1.164,-2.954a4.613,4.613 0 0 0 -1.612,-3.469a5.748,5.748 0 0 0 -4.073,-1.5q-5.416,0 -10.563,9.221l0,-9.221l-1.88,0l0.002,-0.001zm18.754,2.865a7.913,7.913 0 0 1 4.543,1.231q1.814,1.231 5.125,6.065l7.788,11.279l-8.593,11.414q-4.029,5.326 -5.73,6.624a6.041,6.041 0 0 1 -2.819,1.119l0,1.611l13.382,0l0,-1.611a4.85,4.85 0 0 1 -3.022,-0.962a2.55,2.55 0 0 1 -1.007,-1.947q0,-0.76 3.044,-4.834l6.579,-8.773l6,8.773q2.863,4.162 2.865,5.192a1.96,1.96 0 0 1 -0.851,1.656a4.893,4.893 0 0 1 -3.133,0.9l0,1.611l19.336,0l0,-1.611a8.029,8.029 0 0 1 -4.163,-1.231q-1.611,-1.1 -5.371,-6.512l-10.203,-14.683l5.6,-7.475q3.8,-5.1 6,-6.624a7.553,7.553 0 0 1 3.8,-1.209l0,-1.656l-13.874,0l0,1.656a3.776,3.776 0 0 1 2.462,0.649a2.013,2.013 0 0 1 0.761,1.589q0,1.164 -3.223,5.595l-3.357,4.655l-2.909,-4.655q-0.985,-1.521 -1.477,-2.238a7.028,7.028 0 0 1 -1.567,-3.312a2.064,2.064 0 0 1 0.739,-1.656a4.031,4.031 0 0 1 2.573,-0.627l0,-1.656l-19.295,0l0,1.656l-0.003,-0.003zm54.673,-22.984a4.55,4.55 0 1 0 6.446,6.423a4.432,4.432 0 0 0 1.32,-3.222a4.507,4.507 0 0 0 -4.52,-4.521a4.412,4.412 0 0 0 -3.243,1.321l-0.003,-0.001zm4.991,20.119l-12.353,5.014l0.626,1.611a8.951,8.951 0 0 1 3.044,-0.672a2.782,2.782 0 0 1 1.835,0.56a3.509,3.509 0 0 1 0.985,1.992a55.935,55.935 0 0 1 0.4,8.638l0,15.8a14.453,14.453 0 0 1 -0.605,5.147a3.985,3.985 0 0 1 -1.633,1.925a9.276,9.276 0 0 1 -4.029,0.582l0,1.611l19.918,0l0,-1.611a8.845,8.845 0 0 1 -4.006,-0.627a3.921,3.921 0 0 1 -1.656,-1.9a15.081,15.081 0 0 1 -0.56,-5.125l0,-32.944l-1.969,0l0.003,-0.001zm11.19,2.865a11.208,11.208 0 0 1 3,0.761a7.44,7.44 0 0 1 2.282,1.768a13.316,13.316 0 0 1 1.88,3.469l14.637,34.6l1.835,0l14.546,-35.181a11.438,11.438 0 0 1 2.82,-4.476a5.816,5.816 0 0 1 3.223,-0.94l0,-1.656l-13.381,0l0,1.656a12.28,12.28 0 0 1 3.088,0.246a2.476,2.476 0 0 1 1.254,0.918a1.494,1.494 0 0 1 0.358,1.029a11.175,11.175 0 0 1 -1.03,3.805l-9.578,23.5l-9.534,-22.648a9.539,9.539 0 0 1 -0.94,-3.715a2.965,2.965 0 0 1 0.918,-2.283a3.784,3.784 0 0 1 2.663,-0.85l1.253,0l0,-1.656l-19.291,0l0,1.656l-0.003,-0.003z" class="cls-1" data-name="形状 3" id="svg_7"/>
  </g>
 </g>
</svg>
