<svg width="120" height="250" xmlns="http://www.w3.org/2000/svg">
 <defs>
  <linearGradient gradientTransform="matrix(1,0,0,1,-256.8516540527344,-42.2561149597168)" gradientUnits="userSpaceOnUse" y2="167.266" x2="370.562" y1="167.266" x1="263.156" id="svg_16">
   <stop stop-color="#1e3c72" offset="0"/>
   <stop stop-color="#0099e5" offset="1"/>
  </linearGradient>
 </defs>
 <g>
  <title>Layer 1</title>
  <g>

   <path fill="url(#svg_16)" fill-rule="evenodd" d="m41.76234,24.56389l0.977,8.423q0.243,4.641 3.967,11.23a56.387,56.387 0 0 0 6.958,10.127a38.079,38.079 0 0 0 9.583,7.08q6.345,3.542 10.5,3.662t3.906,-2.991a22.486,22.486 0 0 0 -0.61,-4.272q-0.367,-1.159 -5.494,-4.09a52.274,52.274 0 0 1 -10.742,-8.545q-5.616,-5.613 -7.019,-10.315a57.8,57.8 0 0 1 -2.016,-10.429l23.8,-1.587l0.488,4.639a33.1,33.1 0 0 0 2.136,9.888a45.656,45.656 0 0 0 4.09,8.118q2.318,3.6 8.728,8.118a62.385,62.385 0 0 0 10.07,6.1q7.079,3.418 9.156,0.244t1.22,-5.249q-0.855,-2.074 -6.958,-5.31a60.794,60.794 0 0 1 -10.437,-6.836a20.584,20.584 0 0 1 -6.286,-8.972a16.409,16.409 0 0 1 -1.343,-6.714q0.12,-3.05 0.366,-5.249a63.7,63.7 0 0 0 15.991,-2.014q5.981,-1.768 7.08,-3.967q1.832,-3.782 -0.732,-6.042t-12.142,-0.367q-9.585,1.894 -28.2,2.624t-27.771,1.4a67.459,67.459 0 0 0 -16.174,2.991a29.156,29.156 0 0 0 -10.924,5.985q-7.936,7.447 -7.629,15.686a31.512,31.512 0 0 0 3.847,14.527q3.539,6.289 15.747,13.122q8.177,4.761 10.5,1.282t1.587,-5.981q-0.732,-2.5 -8.545,-7.813t-9.643,-8.606a12.568,12.568 0 0 1 -1.831,-8.179q0.486,-4.395 2.319,-6.287a10.711,10.711 0 0 1 4.455,-2.747a40.149,40.149 0 0 1 7.508,-1.4q4.881,-0.549 9.521,-1.282l0,0l-0.004,-0.002zm12.7,85.327l-9.888,0.244l-15.625,0.244a35.541,35.541 0 0 0 -10.986,2.991q-5.25,2.38 -8.545,8.972a26.138,26.138 0 0 0 -2.747,12.329a34.871,34.871 0 0 0 2.5,12.879q2.44,6.042 15.87,7.995a65.231,65.231 0 0 0 12.39,0.122q8.359,-0.486 18.371,-0.671a88.541,88.541 0 0 1 17.823,1.282q7.81,1.464 11.108,4.7a29.4,29.4 0 0 1 5.676,8.057a57.6,57.6 0 0 1 4.151,13.122q1.767,8.3 2.136,24.659l0.122,13.061a111.389,111.389 0 0 1 -0.488,12.207q-0.489,4.029 0.122,5.493q1.218,4.272 5.737,4.029a5.615,5.615 0 0 0 4.334,-1.831a11.07,11.07 0 0 0 1.892,-5.555a110.654,110.654 0 0 0 0.61,-11.169q0,-7.082 -0.183,-11.108t-1.282,-15.686q-1.1,-11.656 -2.075,-16.663a79.754,79.754 0 0 0 -4.578,-13.794a36.888,36.888 0 0 0 -9.887,-14.221a37.884,37.884 0 0 0 -16.236,-7.813q-9.95,-2.38 -30.456,-0.915q-11.965,0.978 -15.686,0.854a12.637,12.637 0 0 1 -5.677,-1.22a8.825,8.825 0 0 1 -3.357,-3.846a13.784,13.784 0 0 1 -1.525,-5.8a11.019,11.019 0 0 1 2.746,-8.362q3.113,-3.6 18.25,-3.967l40.039,0q10.74,0.366 16.907,0.244a18.366,18.366 0 0 0 11.047,-3.845q4.881,-3.723 6.348,-11.414q0.609,-3.538 -0.062,-11.841t-5.126,-13q-4.458,-4.7 -16.6,-6.47t-32.9,-1.648q-13.063,0.123 -29.419,1.648t-18.738,4.517q-2.38,2.993 -2.38,4.822a4.679,4.679 0 0 0 1.648,3.906a5.861,5.861 0 0 0 3.784,1.648q2.014,0.063 9.094,-2.014t31.861,-1.831l0.732,5.127a51.407,51.407 0 0 1 0.61,10.925a77.812,77.812 0 0 1 -1.464,8.606l0,0l0.002,0.001zm30.151,-24.6q12.938,0.672 16.357,3.845t2.442,9.949q-0.979,6.774 -3.357,9.216t-34.607,1.224l0.854,-6.1a62.074,62.074 0 0 0 -0.061,-8.3q-0.306,-6.345 -0.427,-10.132a185.174,185.174 0 0 1 18.795,0.301l0.004,-0.003z" class="cls-1" data-name="形状 4" id="svg_15"/>
  </g>
 </g>
</svg>