<?xml version="1.0" encoding="utf-8"?>
<svg viewBox="0 0 330 100" xmlns="http://www.w3.org/2000/svg">
  <defs>
    <linearGradient gradientUnits="userSpaceOnUse" x1="194.165" y1="165.618" x2="194.165" y2="202.587" id="gradient-0"
      gradientTransform="matrix(-0.243746, 1.02062, -0.817537, -0.216228, 407.007766, 37.122435)">
      <stop offset="0" style="stop-color: rgba(0, 153, 229, 1)" />
      <stop offset="1" style="stop-color: rgba(0, 85, 127, 1)" />
    </linearGradient>
  </defs>
  <path
    d="M 161.222 223.327 C 161.015 223.327 160.742 223.304 160.402 223.257 C 160.069 223.204 159.812 223.157 159.632 223.117 L 159.902 220.997 C 160.055 221.01 160.269 221.024 160.542 221.037 C 160.815 221.057 161.002 221.067 161.102 221.067 C 161.675 221.067 162.142 220.847 162.502 220.407 C 162.862 219.967 163.199 219.37 163.512 218.617 L 164.152 217.057 L 158.912 204.517 L 157.332 204.297 L 157.332 202.567 L 163.542 202.567 L 163.542 204.297 L 161.742 204.577 L 164.632 211.967 L 165.332 213.897 L 165.412 213.897 L 168.832 204.577 L 166.942 204.297 L 166.942 202.567 L 173.022 202.567 L 173.022 204.297 L 171.492 204.517 L 165.672 219.627 C 165.399 220.34 165.069 220.977 164.682 221.537 C 164.295 222.097 163.819 222.537 163.252 222.857 C 162.692 223.17 162.015 223.327 161.222 223.327 ZM 178.893 217.647 C 177.353 217.647 176.18 217.27 175.373 216.517 C 174.573 215.764 174.173 214.704 174.173 213.337 C 174.173 212.397 174.43 211.58 174.943 210.887 C 175.463 210.187 176.21 209.644 177.183 209.257 C 178.156 208.87 179.323 208.677 180.683 208.677 L 183.323 208.677 L 183.323 207.227 C 183.323 206.334 183.05 205.64 182.503 205.147 C 181.963 204.654 181.2 204.407 180.213 204.407 C 179.593 204.407 179.056 204.484 178.603 204.637 C 178.15 204.784 177.736 204.99 177.363 205.257 L 177.073 207.317 L 174.993 207.317 L 174.993 203.927 C 175.66 203.394 176.433 202.987 177.313 202.707 C 178.2 202.427 179.18 202.287 180.253 202.287 C 182.053 202.287 183.463 202.717 184.483 203.577 C 185.503 204.43 186.013 205.657 186.013 207.257 L 186.013 214.377 C 186.013 214.57 186.016 214.757 186.023 214.937 C 186.023 215.117 186.033 215.3 186.053 215.487 L 187.493 215.637 L 187.493 217.357 L 183.623 217.357 C 183.536 216.957 183.473 216.597 183.433 216.277 C 183.386 215.957 183.353 215.637 183.333 215.317 C 182.813 215.984 182.163 216.537 181.383 216.977 C 180.603 217.424 179.773 217.647 178.893 217.647 Z M 179.283 215.387 C 180.176 215.387 180.993 215.174 181.733 214.747 C 182.473 214.32 183.003 213.804 183.323 213.197 L 183.323 210.517 L 180.583 210.517 C 179.343 210.517 178.413 210.814 177.793 211.407 C 177.173 212 176.863 212.664 176.863 213.397 C 176.863 214.044 177.066 214.537 177.473 214.877 C 177.873 215.217 178.476 215.387 179.283 215.387 ZM 194.369 217.647 C 192.829 217.647 191.656 217.27 190.849 216.517 C 190.049 215.764 189.649 214.704 189.649 213.337 C 189.649 212.397 189.906 211.58 190.419 210.887 C 190.939 210.187 191.686 209.644 192.659 209.257 C 193.632 208.87 194.799 208.677 196.159 208.677 L 198.799 208.677 L 198.799 207.227 C 198.799 206.334 198.526 205.64 197.979 205.147 C 197.439 204.654 196.676 204.407 195.689 204.407 C 195.069 204.407 194.532 204.484 194.079 204.637 C 193.626 204.784 193.212 204.99 192.839 205.257 L 192.549 207.317 L 190.469 207.317 L 190.469 203.927 C 191.136 203.394 191.909 202.987 192.789 202.707 C 193.676 202.427 194.656 202.287 195.729 202.287 C 197.529 202.287 198.939 202.717 199.959 203.577 C 200.979 204.43 201.489 205.657 201.489 207.257 L 201.489 214.377 C 201.489 214.57 201.492 214.757 201.499 214.937 C 201.499 215.117 201.509 215.3 201.529 215.487 L 202.969 215.637 L 202.969 217.357 L 199.099 217.357 C 199.012 216.957 198.949 216.597 198.909 216.277 C 198.862 215.957 198.829 215.637 198.809 215.317 C 198.289 215.984 197.639 216.537 196.859 216.977 C 196.079 217.424 195.249 217.647 194.369 217.647 Z M 194.759 215.387 C 195.652 215.387 196.469 215.174 197.209 214.747 C 197.949 214.32 198.479 213.804 198.799 213.197 L 198.799 210.517 L 196.059 210.517 C 194.819 210.517 193.889 210.814 193.269 211.407 C 192.649 212 192.339 212.664 192.339 213.397 C 192.339 214.044 192.542 214.537 192.949 214.877 C 193.349 215.217 193.952 215.387 194.759 215.387 ZM 212.175 217.357 L 205.025 217.357 L 205.025 215.637 L 207.255 215.247 L 207.255 204.687 L 205.025 204.297 L 205.025 202.567 L 209.665 202.567 L 209.895 204.447 L 209.925 204.707 C 210.345 203.954 210.862 203.364 211.475 202.937 C 212.088 202.504 212.792 202.287 213.585 202.287 C 213.872 202.287 214.162 202.314 214.455 202.367 C 214.755 202.414 214.968 202.46 215.095 202.507 L 214.735 205.007 L 212.865 204.897 C 212.152 204.857 211.555 205.02 211.075 205.387 C 210.588 205.754 210.215 206.247 209.955 206.867 L 209.955 215.247 L 212.175 215.637 L 212.175 217.357 ZM 222.34 217.357 L 216.29 217.357 L 216.29 215.637 L 217.93 215.317 L 222.35 209.877 L 218.03 204.617 L 216.57 204.297 L 216.57 202.567 L 222.36 202.567 L 222.36 204.297 L 220.89 204.467 L 223.92 208.237 L 226.88 204.447 L 225.29 204.297 L 225.29 202.567 L 230.99 202.567 L 230.99 204.297 L 229.49 204.617 L 225.48 209.837 L 230.09 215.317 L 231.62 215.637 L 231.62 217.357 L 225.35 217.357 L 225.35 215.637 L 227.12 215.487 L 223.88 211.537 L 220.74 215.487 L 222.34 215.637 L 222.34 217.357 ZM 240.237 217.357 L 233.087 217.357 L 233.087 215.637 L 235.307 215.247 L 235.307 204.687 L 233.087 204.297 L 233.087 202.567 L 238.007 202.567 L 238.007 215.247 L 240.237 215.637 L 240.237 217.357 Z M 238.007 198.917 L 235.177 198.917 L 235.177 196.027 L 238.007 196.027 L 238.007 198.917 ZM 250.601 217.357 L 248.231 217.357 L 242.971 204.507 L 241.441 204.297 L 241.441 202.567 L 247.641 202.567 L 247.641 204.297 L 245.711 204.577 L 249.001 212.997 L 249.381 214.187 L 249.461 214.187 L 249.901 212.997 L 252.951 204.577 L 250.961 204.297 L 250.961 202.567 L 257.161 202.567 L 257.161 204.297 L 255.601 204.507 L 250.601 217.357 Z"
    transform="matrix(3.249948024749756, 0, 0, 3.088247060775757, -508.2803649902344, -597.5469970703125)"
    style="fill: url(#gradient-0); white-space: pre;" />
</svg>
