<?xml version="1.0" standalone="no"?>
<!DOCTYPE svg PUBLIC "-//W3C//DTD SVG 20010904//EN"
 "http://www.w3.org/TR/2001/REC-SVG-20010904/DTD/svg10.dtd">
<svg version="1.0" xmlns="http://www.w3.org/2000/svg"
 width="2000.000000pt" height="2000.000000pt" viewBox="0 0 2000.000000 2000.000000"
 preserveAspectRatio="xMidYMid meet">
<metadata>
Created by potrace 1.14, written by Peter Selinger 2001-2017
</metadata>
<g transform="translate(0.000000,2000.000000) scale(0.100000,-0.100000)"
fill="#000000" stroke="none">
<path d="M13376 19323 c-2 -2 -30 -5 -63 -8 -33 -2 -75 -7 -94 -10 -51 -9 -90
-15 -129 -20 -19 -2 -46 -7 -60 -10 -14 -3 -38 -8 -55 -11 -16 -3 -61 -11
-100 -19 -38 -7 -104 -19 -145 -25 -41 -6 -86 -14 -100 -16 -29 -5 -92 -13
-147 -19 -21 -2 -38 -5 -38 -5 0 -3 -37 -7 -110 -13 -33 -3 -60 -6 -60 -7 0
-1 -16 -3 -35 -5 -19 -2 -64 -6 -100 -10 -70 -7 -83 -8 -210 -19 -47 -4 -101
-9 -120 -11 -39 -4 -197 -15 -275 -20 -27 -2 -95 -6 -150 -10 -209 -13 -243
-15 -360 -20 -66 -3 -165 -7 -220 -10 -55 -3 -158 -7 -230 -10 -71 -3 -142 -6
-157 -9 -16 -2 -28 1 -28 6 0 5 -6 6 -12 1 -13 -7 -41 -9 -279 -16 -70 -3
-130 -6 -135 -8 -5 -2 -46 -4 -91 -4 -46 0 -83 -2 -83 -5 0 -3 -51 -6 -113 -7
-118 -2 -264 -8 -437 -18 -58 -3 -143 -8 -190 -11 -47 -2 -123 -7 -170 -10
-47 -3 -114 -7 -150 -9 -36 -2 -94 -6 -130 -9 -36 -3 -110 -8 -165 -11 -111
-7 -151 -11 -210 -20 -22 -3 -64 -7 -92 -8 -29 -1 -53 -5 -53 -8 0 -3 -15 -6
-32 -7 -18 0 -42 -2 -53 -5 -25 -6 -102 -19 -135 -23 -14 -1 -38 -6 -55 -10
-16 -3 -37 -8 -45 -9 -8 -1 -26 -5 -40 -8 -48 -11 -165 -38 -187 -42 -55 -12
-71 -16 -157 -41 -50 -14 -95 -27 -101 -28 -21 -4 -191 -58 -210 -66 -11 -5
-51 -21 -90 -36 -84 -32 -319 -148 -335 -164 -11 -11 -65 -44 -69 -41 -2 1 -7
-1 -10 -6 -3 -5 -28 -25 -56 -43 -57 -39 -63 -44 -157 -123 -69 -59 -183 -173
-222 -223 -12 -15 -31 -36 -43 -47 -13 -12 -23 -24 -23 -29 0 -5 -9 -19 -21
-31 -88 -93 -253 -406 -285 -542 -41 -171 -48 -224 -47 -390 0 -123 5 -210 18
-300 3 -22 8 -53 10 -70 2 -16 4 -30 5 -30 1 0 3 -13 6 -30 9 -60 13 -80 14
-80 2 0 6 -18 15 -60 4 -16 8 -34 9 -40 1 -5 11 -37 21 -70 10 -33 19 -63 21
-67 1 -5 2 -9 4 -10 1 -2 3 -10 5 -18 15 -67 126 -319 183 -415 87 -148 191
-271 365 -432 32 -29 57 -51 57 -49 0 2 19 -14 43 -36 23 -21 54 -47 70 -56
15 -9 27 -20 27 -24 0 -4 6 -8 14 -8 8 0 16 -3 18 -8 5 -12 76 -64 193 -142
61 -41 113 -79 117 -84 4 -6 8 -8 8 -4 0 4 38 -17 85 -47 47 -30 89 -55 95
-55 5 0 10 -4 10 -10 0 -5 4 -10 10 -10 5 0 67 -33 137 -73 406 -231 654 -280
799 -157 28 25 110 140 98 140 -3 0 3 12 14 28 18 24 47 98 58 145 2 9 6 27 9
40 10 39 6 138 -6 175 -21 64 -84 147 -184 242 -37 36 -54 50 -102 90 -21 18
-189 147 -224 173 -120 88 -207 148 -221 153 -10 4 -18 10 -18 15 0 5 -6 9
-14 9 -8 0 -16 3 -18 8 -1 4 -43 36 -93 71 -49 36 -92 67 -95 71 -3 3 -23 18
-45 34 -22 16 -47 37 -56 45 -9 9 -31 27 -49 41 -18 14 -50 41 -70 60 -21 19
-52 49 -71 66 -166 154 -288 363 -323 554 -1 3 -4 10 -7 15 -3 6 -5 25 -4 43
0 17 -2 32 -6 32 -3 0 -6 20 -5 45 1 25 -2 45 -7 45 -4 0 -3 9 3 20 8 14 8 20
0 20 -6 0 -8 5 -5 10 4 6 8 36 10 68 2 31 4 57 5 57 1 0 3 16 5 35 6 62 27
164 42 200 4 8 7 17 8 20 12 44 51 133 70 159 30 40 146 152 187 180 46 30
142 83 163 88 6 1 29 9 53 18 24 8 53 17 65 19 12 3 23 5 25 7 1 1 7 3 12 4 6
1 11 3 13 5 1 1 11 3 22 5 11 1 79 14 150 28 152 30 179 34 345 52 30 3 75 8
100 11 25 3 59 7 75 9 17 2 30 4 30 5 0 1 18 3 40 5 22 2 60 6 85 10 25 3 61
8 80 10 19 2 35 4 35 5 0 1 11 3 25 5 14 1 41 5 60 8 19 3 62 9 95 13 33 3 70
10 82 15 33 12 36 4 48 -111 2 -25 7 -65 10 -90 3 -25 7 -65 10 -90 2 -25 4
-45 5 -45 1 0 3 -16 5 -35 2 -19 6 -57 9 -85 3 -27 8 -72 11 -100 2 -27 7 -63
10 -80 3 -16 7 -55 10 -85 7 -76 11 -102 18 -125 3 -11 9 -35 12 -54 6 -35 50
-179 66 -216 4 -11 20 -49 35 -85 41 -100 133 -288 144 -295 6 -4 8 -10 5 -15
-3 -4 2 -13 10 -20 8 -7 15 -16 15 -21 0 -14 139 -248 219 -369 69 -104 209
-298 235 -326 6 -7 27 -31 46 -55 47 -60 171 -183 250 -249 35 -30 70 -60 78
-67 30 -28 220 -163 230 -163 6 0 12 -3 14 -7 4 -11 86 -63 97 -63 6 0 15 -8
20 -17 6 -10 11 -14 11 -9 0 5 6 4 13 -2 6 -5 44 -26 82 -47 39 -21 94 -51
123 -67 28 -16 52 -26 52 -21 0 4 4 3 8 -4 6 -9 80 -46 187 -92 49 -22 154
-60 195 -72 82 -23 105 -29 145 -35 17 -3 41 -8 55 -11 32 -7 184 -8 235 -2
47 6 99 30 138 64 27 24 57 117 51 160 -2 11 -5 49 -8 85 -3 36 -8 79 -11 95
-3 17 -10 59 -16 95 -14 79 -36 117 -97 168 -52 44 -219 154 -297 197 -27 15
-59 35 -71 46 -11 10 -24 19 -29 19 -11 0 -109 62 -113 72 -2 5 -10 8 -18 8
-8 0 -14 3 -14 8 0 4 -17 16 -37 27 -20 11 -47 30 -60 43 -13 13 -23 20 -23
17 0 -5 -177 130 -190 145 -3 3 -18 16 -34 28 -98 75 -426 393 -426 413 0 6
-4 7 -10 4 -5 -3 -10 -2 -10 2 0 5 -22 33 -50 63 -27 30 -50 57 -50 60 0 3
-12 19 -28 35 -137 150 -332 510 -332 613 0 11 -4 23 -9 26 -4 3 -11 20 -14
38 -3 18 -20 93 -36 166 -17 73 -30 136 -29 140 1 4 -1 14 -5 22 -3 8 -10 51
-17 95 -6 44 -13 91 -16 105 -2 14 -6 48 -9 75 -3 28 -8 64 -10 81 -5 28 -3
30 22 31 31 0 209 12 288 18 28 3 97 7 155 11 58 3 128 7 155 9 28 2 86 6 130
9 44 3 118 8 165 12 47 3 117 7 155 9 39 2 111 7 160 11 50 3 108 7 130 8 22
1 45 5 52 9 6 4 14 3 18 -3 4 -6 10 -8 15 -5 10 6 71 12 210 20 52 3 130 7
173 10 l77 6 2 -43 c1 -24 2 -55 1 -70 0 -16 3 -28 6 -28 4 0 7 -19 8 -42 0
-24 4 -65 7 -93 8 -62 15 -135 21 -212 2 -32 4 -58 5 -58 1 0 3 -9 4 -20 13
-97 33 -206 51 -275 23 -87 37 -138 42 -150 8 -20 8 -19 23 -73 7 -26 16 -50
21 -53 5 -3 9 -13 9 -22 1 -9 9 -35 20 -57 11 -22 19 -43 20 -47 0 -4 12 -33
27 -65 14 -32 27 -60 27 -63 1 -3 5 -11 9 -17 5 -7 5 -13 0 -13 -4 0 -3 -4 2
-8 6 -4 26 -38 44 -77 46 -93 153 -279 163 -283 4 -2 8 -9 8 -16 0 -11 15 -34
73 -110 56 -74 168 -190 262 -271 32 -28 63 -55 69 -61 22 -21 193 -151 281
-214 50 -36 92 -67 95 -70 9 -10 189 -130 195 -130 3 0 15 -9 27 -20 12 -11
28 -20 35 -20 7 0 13 -4 13 -8 0 -5 11 -14 24 -20 14 -6 44 -23 68 -38 24 -15
45 -27 48 -27 3 1 11 -3 18 -9 14 -12 89 -53 172 -95 30 -16 58 -32 61 -36 3
-5 9 -8 12 -8 4 0 45 -18 92 -40 82 -38 230 -95 230 -89 0 1 12 -3 27 -9 61
-23 235 -34 296 -18 46 12 113 59 144 100 38 52 108 197 115 240 21 120 -4
210 -77 285 -48 48 -98 92 -105 92 -3 0 -18 11 -33 25 -15 14 -37 28 -49 31
-13 4 -20 10 -17 15 3 5 1 9 -4 9 -5 0 -49 24 -98 53 -83 50 -201 115 -304
169 -25 13 -46 26 -48 31 -2 4 -8 7 -13 7 -6 0 -52 26 -102 58 -51 31 -105 63
-120 71 -15 8 -27 18 -27 23 0 4 -7 8 -15 8 -8 0 -15 5 -15 10 0 6 -7 10 -15
10 -8 0 -15 5 -15 10 0 6 -7 10 -15 10 -8 0 -15 5 -15 10 0 6 -4 10 -10 10 -9
0 -70 43 -122 85 -10 8 -36 26 -58 41 -22 15 -40 30 -40 35 0 4 -8 10 -17 13
-10 4 -37 24 -61 46 -24 22 -45 40 -48 40 -9 0 -110 106 -171 180 -35 41 -70
83 -78 93 -8 9 -15 20 -15 23 0 3 -11 20 -25 38 -14 18 -25 38 -25 44 0 6 -3
12 -7 14 -18 8 -162 320 -178 383 -1 6 -5 17 -8 25 -32 87 -61 281 -60 415 0
132 21 405 32 417 3 4 87 10 186 13 169 6 270 12 270 15 0 1 20 3 45 5 51 3
140 13 188 20 17 3 47 7 65 10 48 7 109 17 132 22 11 2 31 5 45 8 14 2 61 11
105 21 44 9 87 18 95 19 8 2 16 4 18 5 3 4 95 23 114 24 3 1 10 4 14 9 4 4 18
7 31 7 12 0 23 5 23 11 0 5 4 8 9 5 17 -11 321 115 329 136 2 4 9 8 15 8 14 0
66 41 110 85 63 64 113 219 104 325 -11 134 -114 252 -251 290 -26 7 -58 14
-70 14 -11 1 -25 4 -31 8 -10 6 -313 7 -319 1z"/>
<path d="M9546 14193 c-2 -2 -79 -6 -172 -8 -93 -3 -209 -7 -259 -9 -49 -3
-146 -8 -215 -11 -69 -3 -150 -8 -180 -10 -30 -1 -107 -6 -170 -10 -63 -4
-131 -8 -150 -10 -19 -2 -75 -6 -125 -10 -118 -8 -210 -15 -395 -31 -41 -4
-99 -7 -127 -8 -29 0 -53 -3 -53 -6 0 -3 -19 -6 -43 -7 -39 -2 -63 -4 -207
-17 -122 -12 -157 -15 -185 -20 -17 -2 -57 -7 -90 -11 -59 -6 -105 -12 -155
-20 -14 -2 -47 -7 -75 -10 -27 -4 -122 -21 -210 -37 -88 -17 -168 -31 -177
-32 -10 0 -18 -5 -18 -10 0 -5 -3 -7 -6 -4 -3 4 -38 -3 -77 -14 -40 -11 -79
-21 -87 -23 -34 -7 -186 -69 -201 -81 -8 -8 -20 -14 -26 -14 -58 0 -257 -283
-280 -397 -8 -44 -9 -164 -1 -170 5 -2 8 -11 8 -19 0 -28 49 -122 72 -138 12
-9 19 -16 14 -16 -4 0 16 -21 46 -46 59 -51 150 -97 218 -111 43 -9 144 -9
185 0 11 3 40 8 65 12 25 3 59 10 75 15 17 5 44 12 60 15 26 4 134 32 255 66
19 5 43 11 52 14 9 2 52 14 95 26 77 22 130 34 188 45 65 11 142 23 185 29 25
3 61 8 81 11 56 7 107 12 199 18 47 4 106 8 133 11 43 5 129 9 372 20 50 2
182 6 295 9 113 3 205 6 205 6 0 4 896 2 899 -1 2 -2 6 -22 9 -44 8 -52 16
-106 23 -152 3 -21 7 -55 10 -75 2 -21 6 -50 9 -65 3 -16 8 -48 11 -73 3 -25
7 -58 10 -75 7 -38 11 -75 19 -150 3 -33 8 -82 10 -110 3 -27 7 -100 10 -161
2 -61 5 -115 6 -120 1 -5 1 -11 0 -14 -1 -3 -4 -68 -6 -145 -3 -77 -6 -151 -9
-165 -5 -33 -18 -120 -21 -145 -2 -24 -16 -111 -21 -140 -3 -11 -7 -36 -10
-55 -11 -66 -55 -275 -59 -279 -3 -2 -74 -5 -158 -6 -85 -1 -159 -5 -165 -9
-7 -4 -12 -2 -12 4 0 7 -6 8 -18 1 -11 -6 -24 -6 -35 0 -9 6 -17 6 -17 2 0 -4
-78 -8 -173 -8 -94 0 -176 -2 -180 -3 -5 -2 -137 -5 -295 -7 -158 -2 -287 -4
-287 -5 0 0 -159 -3 -354 -5 -195 -2 -372 -7 -395 -10 -109 -16 -229 -38 -316
-60 -36 -9 -72 -17 -80 -19 -8 -2 -42 -12 -75 -22 -33 -10 -64 -19 -70 -20
-26 -5 -253 -97 -272 -110 -13 -8 -23 -12 -23 -9 0 9 -108 -53 -175 -99 -258
-179 -477 -492 -607 -865 -31 -90 -73 -252 -83 -316 -3 -23 -7 -50 -9 -60 -17
-91 -31 -545 -16 -545 3 0 5 -17 6 -38 1 -59 15 -174 33 -267 17 -90 17 -94
41 -185 26 -103 57 -208 67 -223 4 -6 8 -18 9 -27 2 -25 57 -154 71 -168 7 -7
13 -18 13 -24 0 -11 71 -100 106 -133 159 -148 425 -273 734 -345 52 -12 104
-25 115 -29 11 -4 32 -7 48 -7 15 1 27 -1 27 -4 0 -3 8 -6 18 -6 9 -1 31 -4
47 -7 17 -3 52 -8 78 -12 27 -4 59 -8 70 -11 12 -2 65 -7 117 -10 52 -3 115
-8 140 -10 55 -4 473 -4 550 1 30 2 96 6 145 10 50 4 133 8 185 10 52 2 95 4
95 5 0 2 133 8 330 15 66 2 120 4 120 5 0 1 280 9 545 15 124 3 237 7 253 9
15 2 27 0 27 -4 0 -6 35 -6 50 0 16 7 200 4 200 -3 0 -5 5 -5 11 -2 16 11 59
13 59 4 0 -5 11 -4 24 1 13 5 27 6 30 3 3 -4 45 -8 94 -9 89 -3 204 -10 302
-20 30 -3 66 -5 79 -4 13 0 30 -5 37 -11 11 -9 14 -8 14 0 0 7 3 10 8 8 4 -3
32 -8 62 -12 30 -3 66 -8 80 -10 14 -2 61 -9 105 -15 44 -7 91 -13 105 -15 71
-11 224 -42 290 -60 14 -4 33 -7 42 -7 10 1 20 -3 23 -9 4 -5 15 -9 25 -9 25
0 218 -66 236 -81 8 -6 14 -9 14 -5 0 3 27 -7 60 -24 33 -17 63 -31 67 -31 21
-3 191 -128 236 -174 65 -66 151 -162 174 -195 9 -14 20 -27 23 -30 4 -3 21
-27 40 -55 19 -27 36 -52 39 -55 7 -6 15 -18 91 -148 33 -57 60 -110 60 -117
0 -7 4 -15 8 -17 11 -4 141 -316 156 -373 3 -10 11 -33 23 -62 4 -10 8 -22 8
-28 1 -5 7 -22 13 -38 7 -15 14 -38 16 -50 3 -12 16 -57 30 -100 13 -42 25
-81 26 -85 0 -4 5 -23 10 -42 12 -46 23 -101 24 -122 0 -10 4 -18 9 -18 5 0 7
-11 5 -25 -3 -13 -2 -26 3 -27 4 -2 11 -23 14 -48 7 -46 12 -71 15 -80 3 -6 4
-11 14 -75 8 -48 11 -64 20 -103 2 -11 7 -43 11 -73 3 -30 8 -65 10 -79 19
-125 19 -126 29 -230 4 -36 9 -83 12 -105 3 -22 7 -75 9 -117 2 -42 6 -85 8
-95 3 -10 9 -65 12 -123 3 -58 9 -145 12 -195 3 -49 6 -117 6 -150 1 -33 6
-63 12 -67 6 -5 6 -8 -2 -8 -7 0 -10 -9 -7 -23 7 -32 13 -239 18 -564 2 -155
7 -287 11 -293 3 -5 2 -10 -3 -10 -10 0 -9 -61 2 -79 4 -6 2 -11 -4 -11 -6 0
-8 -5 -4 -11 9 -16 11 -1040 1 -1046 -4 -3 -3 -10 2 -17 6 -7 8 -16 4 -20 -4
-3 -8 -39 -10 -79 -3 -85 -11 -222 -13 -222 0 0 -3 -34 -6 -75 -2 -41 -7 -88
-10 -105 -3 -16 -7 -100 -10 -185 -4 -140 2 -197 23 -250 4 -8 7 -18 8 -22 2
-5 4 -10 5 -13 1 -3 3 -8 5 -12 14 -52 18 -63 26 -63 5 0 9 -5 9 -11 0 -7 20
-35 44 -64 46 -53 137 -110 191 -119 17 -2 30 -5 30 -7 0 -1 16 -3 36 -4 19
-1 40 -5 46 -8 7 -4 14 -4 17 1 2 4 27 7 55 6 99 -4 227 44 300 114 46 44 101
137 126 213 10 30 20 59 24 64 3 6 6 15 7 20 1 6 5 28 8 50 4 22 8 47 11 55 4
15 16 127 20 190 5 65 16 215 20 265 3 28 7 126 10 219 3 93 7 172 10 174 2 3
0 13 -6 23 -5 11 -6 19 -2 19 10 0 8 164 -1 179 -4 6 -4 11 1 11 6 0 9 192 2
210 -1 3 0 10 1 15 2 11 1 59 -5 310 -5 209 -16 423 -31 585 -3 36 -8 92 -9
125 -2 33 -7 89 -10 125 -4 36 -8 85 -10 110 -2 25 -4 45 -5 45 -1 0 -3 29 -5
65 -3 36 -6 83 -9 105 -12 112 -20 204 -20 237 -1 21 -3 38 -6 38 -3 0 -6 21
-6 48 -1 43 -6 93 -19 207 -2 22 -7 69 -10 105 -6 75 -11 117 -19 180 -3 25
-8 68 -11 95 -3 28 -8 68 -11 90 -2 22 -6 61 -8 86 -2 26 -6 51 -8 55 -3 5 -6
27 -7 49 -5 57 -9 100 -11 100 -2 0 -11 60 -15 100 -1 17 -4 30 -5 30 -1 0 -4
14 -6 30 -6 55 -13 100 -19 135 -7 41 -45 208 -52 230 -2 8 -4 16 -4 17 0 2
-5 17 -10 35 -28 90 -46 168 -41 173 3 3 0 5 -6 5 -7 0 -12 10 -12 23 0 13 -3
27 -7 31 -5 4 -8 11 -9 14 -2 22 -21 80 -56 177 -21 61 -41 117 -43 125 -7 25
-75 202 -95 245 -16 34 -25 58 -35 85 -7 19 -37 88 -45 102 -6 10 -10 25 -10
33 0 8 -4 15 -10 15 -5 0 -10 7 -10 16 0 15 -136 284 -148 294 -4 3 -16 22
-27 42 -49 91 -193 286 -300 407 -82 94 -260 263 -335 319 -47 35 -93 70 -103
78 -9 8 -20 14 -23 14 -2 0 -10 5 -17 10 -19 17 -147 97 -186 117 -20 10 -38
21 -41 24 -17 22 -365 181 -374 171 -3 -3 -6 0 -6 7 0 7 -4 10 -9 6 -5 -3 -16
1 -24 9 -8 8 -17 13 -19 10 -5 -4 -61 14 -138 43 -8 3 -19 7 -25 8 -5 2 -55
15 -110 30 -55 15 -109 28 -120 30 -11 1 -54 10 -95 20 -41 9 -84 18 -95 19
-24 3 -112 17 -140 22 -20 4 -63 9 -150 19 -25 3 -64 7 -87 10 -277 33 -1014
38 -1518 10 -173 -9 -276 -16 -330 -20 -30 -3 -89 -7 -130 -10 -41 -3 -100 -7
-130 -10 -157 -14 -350 -27 -625 -41 -229 -12 -584 -9 -610 5 -5 3 -19 6 -30
7 -65 7 -203 60 -263 101 -57 39 -172 159 -172 180 0 7 -4 13 -9 13 -7 0 -72
119 -76 140 -1 3 -8 21 -17 40 -28 64 -50 139 -43 150 3 5 2 10 -3 10 -5 0
-13 21 -17 48 -3 26 -9 63 -12 82 -9 62 -10 242 -1 289 5 26 10 56 13 69 25
138 119 310 226 414 70 69 220 144 345 173 10 2 37 9 59 15 64 17 78 20 119
25 21 3 42 8 47 10 5 3 28 8 51 10 24 2 43 4 43 5 0 1 18 4 40 6 22 3 54 7 70
9 44 6 124 13 330 31 45 3 512 17 535 15 8 -1 62 -1 120 -1 58 1 112 1 120 1
8 0 224 0 480 0 256 0 472 0 480 0 8 -1 62 -1 120 0 58 0 112 0 120 -1 8 0 62
0 120 0 58 1 112 1 120 1 8 -1 62 -1 120 0 58 0 112 0 120 0 12 -1 193 -1 235
0 80 2 1234 -12 1415 -16 395 -10 720 -11 720 -1 0 5 6 3 13 -3 8 -6 16 -9 19
-6 2 3 49 7 104 10 93 5 121 8 169 18 11 2 38 8 60 12 149 26 415 145 537 239
14 12 41 32 59 46 73 55 182 173 244 264 45 65 133 231 140 261 1 5 7 22 13
38 21 50 62 176 68 209 6 35 7 38 17 78 7 27 13 68 24 165 10 93 5 660 -7 660
-1 0 -11 154 -13 218 -1 20 -4 37 -7 37 -3 0 -5 17 -6 38 0 20 -4 52 -7 70 -4
17 -10 47 -13 65 -3 17 -12 59 -20 92 -8 33 -16 69 -19 79 -7 31 -26 89 -36
114 -5 12 -13 32 -18 45 -5 12 -17 40 -27 62 -10 22 -19 42 -19 45 -3 15 -55
105 -102 178 -54 81 -200 239 -257 278 -15 10 -33 24 -40 29 -19 17 -147 90
-216 123 -123 58 -302 123 -372 136 -15 2 -32 7 -38 11 -9 6 -31 12 -75 21
-11 2 -72 15 -135 29 -120 27 -139 31 -205 40 -22 3 -49 8 -60 11 -11 2 -42 7
-70 10 -27 3 -61 7 -75 10 -14 3 -44 7 -66 9 -23 2 -57 6 -75 9 -19 2 -61 8
-94 11 -33 3 -73 8 -90 10 -16 2 -66 6 -110 10 -44 3 -94 8 -112 10 -17 3 -69
7 -115 10 -46 3 -119 8 -163 10 -133 9 -234 15 -352 19 -62 3 -117 7 -122 10
-5 4 -12 2 -16 -4 -4 -6 -11 -7 -17 -4 -6 4 -72 9 -147 11 -168 5 -1421 10
-1425 6z m2064 -997 c41 -2 129 -7 195 -11 340 -17 624 -41 735 -61 14 -3 39
-6 55 -8 17 -2 55 -8 85 -15 64 -13 94 -19 134 -27 16 -2 33 -7 38 -10 4 -3
17 -7 28 -10 43 -9 56 -13 98 -28 23 -8 42 -12 42 -8 0 4 4 2 8 -4 4 -5 28
-18 53 -27 64 -24 161 -84 209 -131 43 -41 100 -118 100 -135 0 -6 5 -11 10
-11 6 0 9 -3 8 -7 -1 -5 8 -28 19 -53 11 -25 25 -67 32 -95 6 -27 14 -61 18
-75 10 -41 12 -313 3 -356 -4 -21 -11 -61 -14 -89 -3 -27 -8 -61 -11 -75 -3
-14 -7 -36 -10 -50 -12 -64 -18 -90 -37 -155 -11 -38 -21 -74 -23 -80 -8 -38
-60 -162 -82 -197 -13 -21 -23 -42 -23 -48 0 -5 -3 -10 -7 -10 -5 0 -19 -18
-32 -39 -31 -50 -98 -90 -181 -106 -14 -3 -36 -7 -50 -10 -48 -9 -106 -18
-150 -21 -25 -1 -45 -4 -45 -5 0 -3 -272 -22 -292 -20 -21 2 -34 1 -108 -4
-71 -6 -965 -7 -1197 -2 -70 1 -130 5 -133 9 -4 4 -17 3 -30 -2 -13 -5 -25 -7
-27 -5 -2 2 -89 7 -193 10 -464 15 -408 11 -399 26 3 6 8 30 10 52 3 23 11 85
18 137 8 52 12 98 10 102 -3 4 -2 8 3 8 4 0 8 12 9 28 0 15 4 52 8 82 5 30 10
73 12 95 5 49 5 484 0 540 -2 22 -7 114 -11 205 -4 91 -9 192 -10 225 -2 33
-6 141 -10 240 -4 99 -7 191 -8 204 -2 19 4 27 23 31 28 7 1002 4 1120 -4z"/>
</g>
</svg>
